<svg xmlns="http://www.w3.org/2000/svg" xmlns:xlink="http://www.w3.org/1999/xlink" width="365" zoomAndPan="magnify" viewBox="0 0 273.75 67.499998" height="90" preserveAspectRatio="xMidYMid meet" version="1.0"><defs><g/><clipPath id="id1"><path d="M 4.554688 0 L 71.617188 0 L 71.617188 38 L 4.554688 38 Z M 4.554688 0 " clip-rule="nonzero"/></clipPath><clipPath id="id2"><path d="M 5 34 L 71.617188 34 L 71.617188 67.003906 L 5 67.003906 Z M 5 34 " clip-rule="nonzero"/></clipPath><clipPath id="id3"><path d="M 268 51 L 272.621094 51 L 272.621094 57 L 268 57 Z M 268 51 " clip-rule="nonzero"/></clipPath></defs><g clip-path="url(#id1)"><path fill="rgb(56.079102%, 74.119568%, 30.979919%)" d="M 37.292969 20.980469 C 35.074219 19.207031 33.808594 16.542969 33.808594 13.628906 C 33.808594 10.394531 35.457031 7.417969 38.117188 5.703125 C 40.78125 7.417969 42.429688 10.460938 42.429688 13.628906 C 42.429688 16.480469 41.160156 19.207031 38.941406 20.980469 L 38.117188 10.902344 Z M 26.707031 21.234375 C 31.144531 21.742188 34.632812 25.292969 35.074219 29.730469 C 33.046875 26.6875 29.117188 29.664062 24.742188 26.179688 C 22.777344 24.59375 21.507812 22.25 21.257812 19.714844 C 24.617188 17.242188 29.117188 17.179688 32.539062 19.460938 L 32.667969 19.523438 C 35.773438 21.617188 37.738281 25.164062 37.800781 28.96875 C 37.863281 25.164062 39.828125 21.617188 42.933594 19.523438 L 43.0625 19.460938 C 46.484375 17.179688 51.046875 17.304688 54.34375 19.714844 C 54.089844 22.25 52.824219 24.59375 50.859375 26.179688 C 46.484375 29.664062 42.554688 26.75 40.589844 29.730469 C 41.035156 25.292969 44.519531 21.742188 48.957031 21.234375 C 41.792969 21.933594 38.371094 27.320312 38.6875 37.335938 C 38.117188 37.335938 37.484375 37.273438 36.851562 37.144531 C 37.101562 27.257812 33.679688 21.996094 26.582031 21.234375 Z M 38.117188 -0.0625 C 47.371094 -0.0625 55.738281 3.675781 61.824219 9.761719 C 67.910156 15.847656 71.648438 24.214844 71.648438 33.46875 C 71.648438 34.609375 71.585938 35.6875 71.523438 36.765625 C 70.507812 36.828125 69.683594 36.828125 68.988281 36.828125 C 69.113281 35.75 69.175781 34.609375 69.175781 33.46875 C 69.175781 24.910156 65.691406 17.179688 60.113281 11.535156 C 54.535156 5.957031 46.738281 2.472656 38.179688 2.472656 C 29.625 2.472656 21.828125 5.957031 16.25 11.535156 C 10.671875 17.179688 7.183594 24.910156 7.183594 33.46875 C 7.183594 34.609375 7.246094 35.75 7.375 36.828125 C 6.675781 36.828125 5.851562 36.828125 4.839844 36.765625 C 4.710938 35.6875 4.710938 34.546875 4.710938 33.46875 C 4.710938 24.214844 8.453125 15.847656 14.535156 9.761719 C 20.621094 3.738281 28.988281 -0.0625 38.246094 -0.0625 Z M 38.117188 -0.0625 " fill-opacity="1" fill-rule="evenodd"/></g><g clip-path="url(#id2)"><path fill="rgb(1.959229%, 30.198669%, 23.139954%)" d="M 14.855469 36.386719 C 17.515625 35.242188 20.179688 34.101562 23.476562 34.101562 C 26.328125 34.101562 28.988281 35.242188 31.652344 36.386719 C 34.125 37.460938 36.53125 38.476562 38.878906 38.476562 C 41.222656 38.476562 43.695312 37.398438 46.167969 36.386719 C 48.894531 35.242188 51.554688 34.101562 54.410156 34.101562 C 57.132812 34.101562 59.734375 35.242188 62.332031 36.386719 C 66.515625 38.285156 67.59375 38.601562 71.394531 38.476562 C 70.320312 45.765625 66.894531 52.296875 61.953125 57.238281 C 55.867188 63.324219 47.5 67.066406 38.246094 67.066406 C 28.988281 67.066406 20.621094 63.324219 14.535156 57.238281 C 9.59375 52.296875 6.167969 45.765625 5.09375 38.476562 C 8.957031 38.667969 10.480469 38.351562 14.980469 36.386719 Z M 36.660156 40.757812 C 36.40625 41.773438 35.898438 42.535156 35.265625 43.039062 C 33.554688 44.753906 30.953125 45.324219 28.671875 44.5 C 27.214844 43.992188 25.945312 44.054688 24.679688 44.625 C 22.714844 45.449219 20.304688 48.554688 18.148438 46.148438 C 18.085938 46.019531 17.898438 46.019531 17.769531 46.082031 C 17.644531 46.148438 17.578125 46.335938 17.644531 46.464844 C 19.417969 48.300781 21.191406 48.554688 23.03125 47.097656 C 24.617188 45.640625 26.011719 45.195312 27.152344 45.640625 C 27.46875 45.765625 28.164062 46.082031 28.164062 46.527344 C 28.164062 46.652344 27.085938 47.730469 26.835938 48.046875 C 25.757812 49.632812 25.945312 51.027344 23.410156 51.21875 C 23.285156 51.21875 23.222656 51.34375 23.222656 51.472656 C 23.222656 51.597656 23.347656 51.660156 23.476562 51.660156 C 27.785156 52.296875 27.152344 47.289062 30.257812 46.90625 C 31.96875 46.652344 32.539062 47.222656 34.503906 46.210938 C 36.152344 45.578125 36.785156 45.640625 36.53125 46.464844 C 36.214844 47.542969 35.644531 48.808594 34.820312 50.265625 C 33.679688 52.421875 33.554688 54.324219 34.378906 55.910156 C 35.644531 58.378906 35.203125 60.34375 32.984375 61.675781 C 32.855469 61.804688 32.855469 61.992188 32.917969 62.121094 C 33.046875 62.246094 33.238281 62.3125 33.363281 62.246094 C 36.214844 60.789062 37.101562 58.761719 35.960938 56.097656 C 34.882812 53.753906 35.074219 51.976562 36.53125 50.773438 C 37.230469 50.203125 37.738281 51.976562 38.117188 52.421875 C 39.257812 53.945312 41.035156 54.324219 40.335938 57.113281 C 40.273438 57.238281 40.335938 57.367188 40.398438 57.429688 C 40.460938 57.492188 40.589844 57.554688 40.714844 57.554688 C 40.84375 57.554688 40.90625 57.429688 40.96875 57.304688 C 41.476562 55.910156 41.414062 54.703125 40.84375 53.816406 C 39.574219 51.660156 37.230469 50.394531 38.433594 47.542969 C 38.6875 47.035156 39.132812 46.90625 39.765625 47.160156 C 41.476562 47.605469 42.871094 47.921875 44.011719 48.046875 C 46.675781 48.300781 48.132812 46.527344 49.84375 47.859375 C 50.542969 48.429688 51.046875 49.125 51.367188 50.078125 C 52.253906 52.675781 51.046875 53.625 54.535156 55.210938 C 54.660156 55.273438 54.851562 55.210938 54.980469 55.019531 C 55.042969 54.894531 55.042969 54.703125 54.914062 54.578125 C 51.300781 52.738281 54.597656 50.332031 51.808594 47.542969 C 51.683594 47.414062 51.683594 47.160156 51.808594 46.972656 C 51.9375 46.78125 52.191406 46.78125 52.378906 46.90625 C 55.421875 48.746094 58.019531 48.746094 60.238281 46.90625 C 60.429688 46.71875 60.429688 46.464844 60.304688 46.273438 C 60.175781 46.082031 59.921875 46.019531 59.734375 46.082031 C 56.625 47.792969 55.167969 46.527344 52.570312 45.257812 C 51.113281 44.5625 49.589844 44.5625 47.878906 45.386719 C 44.710938 46.589844 42.175781 45.894531 40.210938 43.105469 C 39.765625 42.46875 39.449219 41.710938 39.195312 40.886719 C 38.308594 40.886719 37.421875 40.757812 36.597656 40.632812 Z M 36.660156 40.757812 " fill-opacity="1" fill-rule="evenodd"/></g><g fill="rgb(1.959229%, 30.198669%, 23.139954%)" fill-opacity="1"><g transform="translate(75.777002, 36.018586)"><g><path d="M 7.722656 -10.652344 L 4.925781 -10.652344 L 4.925781 0 L 1.332031 0 L 1.332031 -24.464844 L 4.925781 -24.464844 L 4.925781 -14.347656 L 7.722656 -14.347656 L 7.722656 -24.464844 L 11.316406 -24.464844 L 11.316406 0 L 7.722656 0 Z M 7.722656 -10.652344 "/></g></g></g><g fill="rgb(1.959229%, 30.198669%, 23.139954%)" fill-opacity="1"><g transform="translate(92.850029, 36.018586)"><g><path d="M 1.332031 -24.464844 L 9.554688 -24.464844 L 9.554688 -20.769531 L 4.925781 -20.769531 L 4.925781 -14.347656 L 8.253906 -14.347656 L 8.253906 -10.417969 L 4.925781 -10.417969 L 4.925781 -3.695312 L 9.554688 -3.695312 L 9.554688 0 L 1.332031 0 Z M 1.332031 -24.464844 "/></g></g></g><g fill="rgb(1.959229%, 30.198669%, 23.139954%)" fill-opacity="1"><g transform="translate(107.493878, 36.018586)"><g><path d="M 1.332031 -24.464844 L 4.925781 -24.464844 L 4.925781 -3.328125 L 9.6875 -3.328125 L 9.6875 0 L 1.332031 0 Z M 1.332031 -24.464844 "/></g></g></g><g fill="rgb(1.959229%, 30.198669%, 23.139954%)" fill-opacity="1"><g transform="translate(121.738414, 36.018586)"><g><path d="M 1.332031 -24.464844 L 4.925781 -24.464844 L 4.925781 -3.328125 L 9.6875 -3.328125 L 9.6875 0 L 1.332031 0 Z M 1.332031 -24.464844 "/></g></g></g><g fill="rgb(1.959229%, 30.198669%, 23.139954%)" fill-opacity="1"><g transform="translate(135.982948, 36.018586)"><g><path d="M 10.683594 -5.027344 C 10.652344 -4.027344 10.453125 -3.128906 10.085938 -2.363281 C 9.785156 -1.699219 9.320312 -1.066406 8.65625 -0.566406 C 7.988281 -0.0351562 7.089844 0.265625 5.890625 0.265625 C 4.695312 0.265625 3.761719 -0.0351562 3.09375 -0.566406 C 2.429688 -1.066406 1.996094 -1.699219 1.699219 -2.363281 C 1.332031 -3.128906 1.132812 -4.027344 1.097656 -5.027344 L 1.097656 -19.4375 C 1.132812 -20.40625 1.332031 -21.304688 1.699219 -22.070312 C 1.996094 -22.734375 2.429688 -23.402344 3.09375 -23.898438 C 3.761719 -24.398438 4.695312 -24.730469 5.890625 -24.730469 C 7.089844 -24.730469 7.988281 -24.398438 8.65625 -23.898438 C 9.320312 -23.402344 9.785156 -22.734375 10.085938 -22.070312 C 10.453125 -21.304688 10.652344 -20.40625 10.683594 -19.4375 Z M 7.089844 -19.4375 C 7.089844 -20.105469 6.957031 -20.570312 6.625 -20.96875 C 6.457031 -21.136719 6.191406 -21.238281 5.890625 -21.238281 C 5.257812 -21.238281 4.960938 -20.769531 4.828125 -20.339844 C 4.726562 -20.070312 4.695312 -19.773438 4.695312 -19.4375 L 4.695312 -5.027344 C 4.695312 -4.328125 4.859375 -3.859375 5.191406 -3.496094 C 5.359375 -3.328125 5.59375 -3.230469 5.890625 -3.230469 C 6.523438 -3.230469 6.824219 -3.628906 6.957031 -4.128906 C 7.058594 -4.359375 7.089844 -4.660156 7.089844 -5.027344 Z M 7.089844 -19.4375 "/></g></g></g><g fill="rgb(1.959229%, 30.198669%, 23.139954%)" fill-opacity="1"><g transform="translate(152.190783, 36.018586)"><g/></g></g><g fill="rgb(1.959229%, 30.198669%, 23.139954%)" fill-opacity="1"><g transform="translate(161.743356, 36.018586)"><g><path d="M 7.722656 -10.652344 L 4.925781 -10.652344 L 4.925781 0 L 1.332031 0 L 1.332031 -24.464844 L 4.925781 -24.464844 L 4.925781 -14.347656 L 7.722656 -14.347656 L 7.722656 -24.464844 L 11.316406 -24.464844 L 11.316406 0 L 7.722656 0 Z M 7.722656 -10.652344 "/></g></g></g><g fill="rgb(1.959229%, 30.198669%, 23.139954%)" fill-opacity="1"><g transform="translate(178.816381, 36.018586)"><g><path d="M 0.332031 0 L 4.027344 -24.464844 L 8.421875 -24.464844 L 12.117188 0 L 8.621094 0 L 7.957031 -4.992188 L 4.492188 -4.992188 L 3.828125 0 Z M 6.425781 -16.511719 L 6.324219 -17.140625 L 6.125 -17.140625 L 6.023438 -16.511719 L 4.992188 -8.789062 L 7.457031 -8.789062 Z M 6.425781 -16.511719 "/></g></g></g><g fill="rgb(1.959229%, 30.198669%, 23.139954%)" fill-opacity="1"><g transform="translate(195.689749, 36.018586)"><g><path d="M 7.753906 0 L 5.890625 -10.320312 L 4.925781 -10.320312 L 4.925781 0 L 1.332031 0 L 1.332031 -24.464844 L 4.925781 -24.464844 C 9.21875 -24.464844 11.050781 -22.035156 11.050781 -17.410156 C 11.050781 -14.980469 10.417969 -12.78125 9.054688 -11.851562 L 11.351562 0 Z M 4.925781 -13.648438 C 5.425781 -13.648438 6.089844 -13.714844 6.625 -14.179688 C 7.15625 -14.644531 7.589844 -15.542969 7.589844 -17.277344 C 7.589844 -19.007812 7.15625 -19.9375 6.625 -20.40625 C 6.089844 -20.871094 5.425781 -20.902344 4.925781 -20.902344 Z M 4.925781 -13.648438 "/></g></g></g><g fill="rgb(1.959229%, 30.198669%, 23.139954%)" fill-opacity="1"><g transform="translate(212.130522, 36.018586)"><g><path d="M 7.855469 -24.464844 L 11.351562 -24.464844 L 7.621094 0 L 4.027344 0 L 0.300781 -24.464844 L 3.792969 -24.464844 L 5.59375 -11.019531 L 5.726562 -9.984375 L 5.925781 -9.984375 L 6.058594 -11.019531 Z M 7.855469 -24.464844 "/></g></g></g><g fill="rgb(1.959229%, 30.198669%, 23.139954%)" fill-opacity="1"><g transform="translate(228.205261, 36.018586)"><g><path d="M 1.332031 -24.464844 L 9.554688 -24.464844 L 9.554688 -20.769531 L 4.925781 -20.769531 L 4.925781 -14.347656 L 8.253906 -14.347656 L 8.253906 -10.417969 L 4.925781 -10.417969 L 4.925781 -3.695312 L 9.554688 -3.695312 L 9.554688 0 L 1.332031 0 Z M 1.332031 -24.464844 "/></g></g></g><g fill="rgb(1.959229%, 30.198669%, 23.139954%)" fill-opacity="1"><g transform="translate(242.849115, 36.018586)"><g><path d="M 7.289062 -17.90625 C 7.289062 -18.707031 7.257812 -19.605469 7.023438 -20.304688 C 6.789062 -20.96875 6.425781 -21.4375 5.859375 -21.4375 C 4.925781 -21.402344 4.625 -20.4375 4.625 -19.007812 C 4.625 -18.175781 4.992188 -17.308594 5.527344 -16.378906 C 6.058594 -15.445312 6.757812 -14.480469 7.457031 -13.449219 C 8.289062 -12.214844 9.121094 -10.953125 9.753906 -9.71875 C 10.386719 -8.488281 10.816406 -7.222656 10.816406 -5.890625 C 10.816406 -4.261719 10.550781 -2.730469 9.785156 -1.597656 C 9.019531 -0.464844 7.789062 0.265625 5.824219 0.265625 C 3.527344 0.265625 2.230469 -0.597656 1.496094 -1.929688 C 0.765625 -3.261719 0.597656 -5.027344 0.597656 -6.855469 L 4.128906 -7.191406 C 4.128906 -6.15625 4.160156 -5.125 4.425781 -4.359375 C 4.660156 -3.5625 5.058594 -3.027344 5.824219 -3.027344 C 6.890625 -3.027344 7.289062 -4.160156 7.289062 -5.726562 C 7.289062 -6.523438 6.890625 -7.457031 6.359375 -8.421875 C 6.058594 -8.886719 5.757812 -9.386719 5.425781 -9.886719 C 4.726562 -10.882812 3.960938 -12.015625 3.164062 -13.246094 C 2.363281 -14.480469 1.765625 -15.746094 1.398438 -17.042969 C 1.199219 -17.675781 1.097656 -18.339844 1.097656 -19.007812 C 1.097656 -20.339844 1.398438 -21.769531 2.164062 -22.867188 C 2.929688 -23.933594 4.09375 -24.699219 5.792969 -24.730469 C 7.957031 -24.765625 9.21875 -23.867188 9.917969 -22.566406 C 10.617188 -21.238281 10.816406 -19.605469 10.816406 -18.242188 Z M 7.289062 -17.90625 "/></g></g></g><g fill="rgb(1.959229%, 30.198669%, 23.139954%)" fill-opacity="1"><g transform="translate(258.690922, 36.018586)"><g><path d="M 0.0664062 -20.769531 L 0.0664062 -24.464844 L 10.453125 -24.464844 L 10.453125 -20.769531 L 7.058594 -20.769531 L 7.058594 0 L 3.460938 0 L 3.460938 -20.769531 Z M 0.0664062 -20.769531 "/></g></g></g><g fill="rgb(56.079102%, 74.119568%, 30.979919%)" fill-opacity="1"><g transform="translate(66.612647, 56.688048)"><g><path d="M 1.492188 -5.601562 L 2.316406 -5.601562 C 2.675781 -5.601562 3.007812 -5.515625 3.230469 -5.25 C 3.453125 -4.984375 3.550781 -4.5625 3.40625 -3.921875 C 3.261719 -3.285156 2.996094 -2.871094 2.667969 -2.605469 C 2.339844 -2.339844 1.957031 -2.238281 1.601562 -2.238281 L 1.128906 0 L 0.304688 0 Z M 1.773438 -3.078125 C 2.027344 -3.078125 2.203125 -3.125 2.316406 -3.253906 C 2.4375 -3.375 2.5 -3.582031 2.566406 -3.894531 C 2.636719 -4.207031 2.660156 -4.417969 2.597656 -4.5625 C 2.535156 -4.691406 2.382812 -4.761719 2.132812 -4.761719 Z M 1.773438 -3.078125 "/></g></g></g><g fill="rgb(56.079102%, 74.119568%, 30.979919%)" fill-opacity="1"><g transform="translate(70.894478, 56.688048)"><g><path d="M 1.773438 0 L 1.84375 -2.363281 L 1.621094 -2.363281 L 1.128906 0 L 0.304688 0 L 1.492188 -5.601562 L 2.316406 -5.601562 C 3.300781 -5.601562 3.597656 -5.050781 3.375 -3.984375 C 3.253906 -3.429688 3 -2.925781 2.644531 -2.710938 L 2.597656 0 Z M 1.789062 -3.125 C 1.90625 -3.125 2.058594 -3.132812 2.203125 -3.246094 C 2.347656 -3.359375 2.492188 -3.558594 2.574219 -3.953125 C 2.660156 -4.351562 2.605469 -4.554688 2.507812 -4.671875 C 2.40625 -4.785156 2.253906 -4.785156 2.140625 -4.785156 Z M 1.789062 -3.125 "/></g></g></g><g fill="rgb(56.079102%, 74.119568%, 30.979919%)" fill-opacity="1"><g transform="translate(75.244879, 56.688048)"><g><path d="M 2.691406 -1.152344 C 2.628906 -0.921875 2.535156 -0.714844 2.421875 -0.539062 C 2.308594 -0.386719 2.179688 -0.242188 2.003906 -0.128906 C 1.820312 0 1.601562 0.0625 1.332031 0.0625 C 1.066406 0.0625 0.867188 0 0.730469 -0.128906 C 0.601562 -0.242188 0.535156 -0.386719 0.503906 -0.539062 C 0.449219 -0.714844 0.449219 -0.914062 0.496094 -1.152344 L 1.195312 -4.449219 C 1.25 -4.671875 1.332031 -4.867188 1.457031 -5.050781 C 1.570312 -5.203125 1.691406 -5.355469 1.867188 -5.46875 C 2.042969 -5.585938 2.269531 -5.660156 2.542969 -5.660156 C 2.820312 -5.660156 3.007812 -5.585938 3.140625 -5.46875 C 3.269531 -5.355469 3.34375 -5.203125 3.375 -5.050781 C 3.429688 -4.882812 3.429688 -4.6875 3.390625 -4.449219 Z M 2.566406 -4.449219 C 2.597656 -4.601562 2.582031 -4.714844 2.53125 -4.800781 C 2.5 -4.839844 2.445312 -4.859375 2.378906 -4.859375 C 2.230469 -4.859375 2.140625 -4.753906 2.085938 -4.65625 C 2.058594 -4.59375 2.035156 -4.527344 2.019531 -4.449219 L 1.316406 -1.152344 C 1.28125 -1.003906 1.296875 -0.882812 1.355469 -0.800781 C 1.386719 -0.761719 1.433594 -0.738281 1.5 -0.738281 C 1.644531 -0.738281 1.738281 -0.832031 1.789062 -0.945312 C 1.8125 -0.992188 1.84375 -1.058594 1.867188 -1.152344 Z M 2.566406 -4.449219 "/></g></g></g><g fill="rgb(56.079102%, 74.119568%, 30.979919%)" fill-opacity="1"><g transform="translate(79.541949, 56.688048)"><g><path d="M 2.988281 -5.601562 L 3.785156 -5.601562 L 1.746094 0 L 0.921875 0 L 1.257812 -5.601562 L 2.058594 -5.601562 L 1.8125 -2.523438 L 1.789062 -2.285156 L 1.835938 -2.285156 L 1.921875 -2.523438 Z M 2.988281 -5.601562 "/></g></g></g><g fill="rgb(56.079102%, 74.119568%, 30.979919%)" fill-opacity="1"><g transform="translate(83.808541, 56.688048)"><g><path d="M 1.492188 -5.601562 L 2.316406 -5.601562 L 1.128906 0 L 0.304688 0 Z M 1.492188 -5.601562 "/></g></g></g><g fill="rgb(56.079102%, 74.119568%, 30.979919%)" fill-opacity="1"><g transform="translate(86.840864, 56.688048)"><g><path d="M 0.304688 0 L 1.492188 -5.601562 L 2.140625 -5.601562 C 2.902344 -5.601562 3.269531 -5.449219 3.414062 -5.019531 C 3.535156 -4.59375 3.421875 -3.902344 3.183594 -2.796875 C 2.949219 -1.699219 2.773438 -1.003906 2.46875 -0.578125 C 2.15625 -0.152344 1.714844 0 0.953125 0 Z M 1.296875 -0.824219 C 1.578125 -0.824219 1.746094 -0.851562 1.890625 -1.128906 C 2.019531 -1.378906 2.125 -1.828125 2.203125 -2.195312 C 2.238281 -2.371094 2.277344 -2.574219 2.332031 -2.804688 C 2.378906 -3.03125 2.421875 -3.238281 2.460938 -3.421875 C 2.535156 -3.777344 2.628906 -4.207031 2.597656 -4.480469 C 2.574219 -4.746094 2.421875 -4.777344 2.140625 -4.777344 Z M 1.296875 -0.824219 "/></g></g></g><g fill="rgb(56.079102%, 74.119568%, 30.979919%)" fill-opacity="1"><g transform="translate(91.275075, 56.688048)"><g><path d="M 1.492188 -5.601562 L 2.316406 -5.601562 L 1.128906 0 L 0.304688 0 Z M 1.492188 -5.601562 "/></g></g></g><g fill="rgb(56.079102%, 74.119568%, 30.979919%)" fill-opacity="1"><g transform="translate(94.307398, 56.688048)"><g><path d="M 1.789062 -2.917969 L 1.773438 -3.175781 L 1.730469 -3.175781 L 1.058594 0 L 0.304688 0 L 1.492188 -5.601562 L 2.226562 -5.601562 L 2.398438 -2.683594 L 2.414062 -2.421875 L 2.460938 -2.421875 L 3.140625 -5.601562 L 3.894531 -5.601562 L 2.703125 0 L 1.972656 0 Z M 1.789062 -2.917969 "/></g></g></g><g fill="rgb(56.079102%, 74.119568%, 30.979919%)" fill-opacity="1"><g transform="translate(98.916845, 56.688048)"><g><path d="M 2.382812 -3.589844 L 2.566406 -4.449219 C 2.597656 -4.601562 2.582031 -4.714844 2.53125 -4.800781 C 2.5 -4.839844 2.445312 -4.859375 2.378906 -4.859375 C 2.230469 -4.859375 2.140625 -4.753906 2.085938 -4.65625 C 2.058594 -4.59375 2.035156 -4.527344 2.019531 -4.449219 L 1.304688 -1.082031 C 1.265625 -0.9375 1.28125 -0.816406 1.339844 -0.730469 C 1.371094 -0.691406 1.417969 -0.671875 1.484375 -0.671875 C 1.628906 -0.671875 1.722656 -0.761719 1.773438 -0.875 C 1.796875 -0.921875 1.828125 -0.992188 1.851562 -1.082031 L 2.066406 -2.09375 L 1.738281 -2.09375 L 1.882812 -2.789062 L 3.03125 -2.789062 L 2.445312 0 L 1.957031 0 L 1.914062 -0.265625 C 1.722656 -0.078125 1.46875 0.0625 1.203125 0.0625 C 0.9375 0.0625 0.769531 -0.0078125 0.65625 -0.128906 C 0.539062 -0.242188 0.480469 -0.386719 0.457031 -0.539062 C 0.417969 -0.714844 0.433594 -0.914062 0.496094 -1.152344 L 1.195312 -4.449219 C 1.25 -4.671875 1.332031 -4.867188 1.457031 -5.050781 C 1.570312 -5.203125 1.691406 -5.355469 1.867188 -5.46875 C 2.042969 -5.585938 2.269531 -5.660156 2.542969 -5.660156 C 2.820312 -5.660156 3.007812 -5.585938 3.140625 -5.46875 C 3.269531 -5.355469 3.34375 -5.203125 3.375 -5.050781 C 3.429688 -4.882812 3.429688 -4.6875 3.390625 -4.449219 L 3.207031 -3.589844 Z M 2.382812 -3.589844 "/></g></g></g><g fill="rgb(56.079102%, 74.119568%, 30.979919%)" fill-opacity="1"><g transform="translate(103.259632, 56.688048)"><g/></g></g><g fill="rgb(56.079102%, 74.119568%, 30.979919%)" fill-opacity="1"><g transform="translate(106.03291, 56.688048)"><g><path d="M 3.269531 -4.753906 L 2.132812 -4.753906 L 1.820312 -3.285156 L 2.582031 -3.285156 L 2.40625 -2.4375 L 1.644531 -2.4375 L 1.128906 0 L 0.304688 0 L 1.492188 -5.601562 L 3.453125 -5.601562 Z M 3.269531 -4.753906 "/></g></g></g><g fill="rgb(56.079102%, 74.119568%, 30.979919%)" fill-opacity="1"><g transform="translate(109.926179, 56.688048)"><g><path d="M 0.078125 0 L 2.109375 -5.601562 L 3.117188 -5.601562 L 2.773438 0 L 1.972656 0 L 2.058594 -1.144531 L 1.265625 -1.144531 L 0.875 0 Z M 2.269531 -3.777344 L 2.277344 -3.921875 L 2.230469 -3.921875 L 2.179688 -3.777344 L 1.570312 -2.011719 L 2.132812 -2.011719 Z M 2.269531 -3.777344 "/></g></g></g><g fill="rgb(56.079102%, 74.119568%, 30.979919%)" fill-opacity="1"><g transform="translate(114.375628, 56.688048)"><g><path d="M 1.773438 0 L 1.84375 -2.363281 L 1.621094 -2.363281 L 1.128906 0 L 0.304688 0 L 1.492188 -5.601562 L 2.316406 -5.601562 C 3.300781 -5.601562 3.597656 -5.050781 3.375 -3.984375 C 3.253906 -3.429688 3 -2.925781 2.644531 -2.710938 L 2.597656 0 Z M 1.789062 -3.125 C 1.90625 -3.125 2.058594 -3.132812 2.203125 -3.246094 C 2.347656 -3.359375 2.492188 -3.558594 2.574219 -3.953125 C 2.660156 -4.351562 2.605469 -4.554688 2.507812 -4.671875 C 2.40625 -4.785156 2.253906 -4.785156 2.140625 -4.785156 Z M 1.789062 -3.125 "/></g></g></g><g fill="rgb(56.079102%, 74.119568%, 30.979919%)" fill-opacity="1"><g transform="translate(118.726027, 56.688048)"><g><path d="M 1.667969 0 L 1.890625 -3.519531 L 1.90625 -3.757812 L 1.859375 -3.757812 L 1.066406 0 L 0.304688 0 L 1.492188 -5.601562 L 2.5 -5.601562 L 2.4375 -3.039062 L 2.414062 -2.742188 L 2.429688 -2.742188 L 2.53125 -3.039062 L 3.566406 -5.601562 L 4.570312 -5.601562 L 3.382812 0 L 2.621094 0 L 3.414062 -3.757812 L 3.367188 -3.757812 L 3.292969 -3.519531 L 2.019531 0 Z M 1.667969 0 "/></g></g></g><g fill="rgb(56.079102%, 74.119568%, 30.979919%)" fill-opacity="1"><g transform="translate(124.013563, 56.688048)"><g/></g></g><g fill="rgb(56.079102%, 74.119568%, 30.979919%)" fill-opacity="1"><g transform="translate(126.786838, 56.688048)"><g><path d="M 3.269531 -4.753906 L 2.132812 -4.753906 L 1.820312 -3.285156 L 2.582031 -3.285156 L 2.40625 -2.4375 L 1.644531 -2.4375 L 1.128906 0 L 0.304688 0 L 1.492188 -5.601562 L 3.453125 -5.601562 Z M 3.269531 -4.753906 "/></g></g></g><g fill="rgb(56.079102%, 74.119568%, 30.979919%)" fill-opacity="1"><g transform="translate(130.680104, 56.688048)"><g><path d="M 1.773438 0 L 1.84375 -2.363281 L 1.621094 -2.363281 L 1.128906 0 L 0.304688 0 L 1.492188 -5.601562 L 2.316406 -5.601562 C 3.300781 -5.601562 3.597656 -5.050781 3.375 -3.984375 C 3.253906 -3.429688 3 -2.925781 2.644531 -2.710938 L 2.597656 0 Z M 1.789062 -3.125 C 1.90625 -3.125 2.058594 -3.132812 2.203125 -3.246094 C 2.347656 -3.359375 2.492188 -3.558594 2.574219 -3.953125 C 2.660156 -4.351562 2.605469 -4.554688 2.507812 -4.671875 C 2.40625 -4.785156 2.253906 -4.785156 2.140625 -4.785156 Z M 1.789062 -3.125 "/></g></g></g><g fill="rgb(56.079102%, 74.119568%, 30.979919%)" fill-opacity="1"><g transform="translate(135.030504, 56.688048)"><g><path d="M 1.492188 -5.601562 L 3.375 -5.601562 L 3.191406 -4.753906 L 2.132812 -4.753906 L 1.820312 -3.285156 L 2.582031 -3.285156 L 2.390625 -2.382812 L 1.628906 -2.382812 L 1.304688 -0.84375 L 2.363281 -0.84375 L 2.1875 0 L 0.304688 0 Z M 1.492188 -5.601562 "/></g></g></g><g fill="rgb(56.079102%, 74.119568%, 30.979919%)" fill-opacity="1"><g transform="translate(138.969477, 56.688048)"><g><path d="M 2.535156 -4.097656 C 2.574219 -4.28125 2.613281 -4.488281 2.589844 -4.648438 C 2.566406 -4.800781 2.507812 -4.90625 2.378906 -4.90625 C 2.164062 -4.898438 2.050781 -4.679688 1.980469 -4.351562 C 1.941406 -4.160156 1.972656 -3.960938 2.058594 -3.75 C 2.140625 -3.535156 2.238281 -3.3125 2.355469 -3.078125 C 2.5 -2.796875 2.613281 -2.507812 2.703125 -2.226562 C 2.789062 -1.941406 2.828125 -1.652344 2.757812 -1.347656 C 2.675781 -0.976562 2.550781 -0.632812 2.316406 -0.367188 C 2.078125 -0.0976562 1.773438 0.0625 1.316406 0.0625 C 0.792969 0.0625 0.535156 -0.136719 0.433594 -0.441406 C 0.320312 -0.746094 0.382812 -1.144531 0.464844 -1.570312 L 1.289062 -1.644531 C 1.234375 -1.410156 1.195312 -1.171875 1.21875 -1 C 1.242188 -0.816406 1.304688 -0.691406 1.476562 -0.691406 C 1.722656 -0.691406 1.859375 -0.953125 1.941406 -1.308594 C 1.980469 -1.492188 1.941406 -1.707031 1.859375 -1.925781 C 1.835938 -1.980469 1.8125 -2.042969 1.789062 -2.09375 C 1.769531 -2.148438 1.746094 -2.210938 1.722656 -2.261719 C 1.667969 -2.378906 1.609375 -2.5 1.546875 -2.628906 C 1.484375 -2.757812 1.425781 -2.886719 1.363281 -3.03125 C 1.234375 -3.320312 1.164062 -3.613281 1.144531 -3.902344 C 1.121094 -4.046875 1.144531 -4.199219 1.171875 -4.351562 C 1.234375 -4.65625 1.371094 -4.984375 1.609375 -5.234375 C 1.828125 -5.476562 2.132812 -5.652344 2.523438 -5.660156 C 3.03125 -5.667969 3.269531 -5.460938 3.367188 -5.164062 C 3.457031 -4.859375 3.429688 -4.488281 3.359375 -4.175781 Z M 2.535156 -4.097656 "/></g></g></g><g fill="rgb(56.079102%, 74.119568%, 30.979919%)" fill-opacity="1"><g transform="translate(143.182735, 56.688048)"><g><path d="M 2.285156 -2.4375 L 1.644531 -2.4375 L 1.128906 0 L 0.304688 0 L 1.492188 -5.601562 L 2.316406 -5.601562 L 1.820312 -3.285156 L 2.460938 -3.285156 L 2.957031 -5.601562 L 3.777344 -5.601562 L 2.589844 0 L 1.769531 0 Z M 2.285156 -2.4375 "/></g></g></g><g fill="rgb(56.079102%, 74.119568%, 30.979919%)" fill-opacity="1"><g transform="translate(147.677891, 56.688048)"><g/></g></g><g fill="rgb(56.079102%, 74.119568%, 30.979919%)" fill-opacity="1"><g transform="translate(150.451172, 56.688048)"><g><path d="M 1.492188 -5.601562 L 2.316406 -5.601562 C 2.675781 -5.601562 3.007812 -5.515625 3.230469 -5.25 C 3.453125 -4.984375 3.550781 -4.5625 3.40625 -3.921875 C 3.261719 -3.285156 2.996094 -2.871094 2.667969 -2.605469 C 2.339844 -2.339844 1.957031 -2.238281 1.601562 -2.238281 L 1.128906 0 L 0.304688 0 Z M 1.773438 -3.078125 C 2.027344 -3.078125 2.203125 -3.125 2.316406 -3.253906 C 2.4375 -3.375 2.5 -3.582031 2.566406 -3.894531 C 2.636719 -4.207031 2.660156 -4.417969 2.597656 -4.5625 C 2.535156 -4.691406 2.382812 -4.761719 2.132812 -4.761719 Z M 1.773438 -3.078125 "/></g></g></g><g fill="rgb(56.079102%, 74.119568%, 30.979919%)" fill-opacity="1"><g transform="translate(154.733005, 56.688048)"><g><path d="M 1.773438 0 L 1.84375 -2.363281 L 1.621094 -2.363281 L 1.128906 0 L 0.304688 0 L 1.492188 -5.601562 L 2.316406 -5.601562 C 3.300781 -5.601562 3.597656 -5.050781 3.375 -3.984375 C 3.253906 -3.429688 3 -2.925781 2.644531 -2.710938 L 2.597656 0 Z M 1.789062 -3.125 C 1.90625 -3.125 2.058594 -3.132812 2.203125 -3.246094 C 2.347656 -3.359375 2.492188 -3.558594 2.574219 -3.953125 C 2.660156 -4.351562 2.605469 -4.554688 2.507812 -4.671875 C 2.40625 -4.785156 2.253906 -4.785156 2.140625 -4.785156 Z M 1.789062 -3.125 "/></g></g></g><g fill="rgb(56.079102%, 74.119568%, 30.979919%)" fill-opacity="1"><g transform="translate(159.08341, 56.688048)"><g><path d="M 2.691406 -1.152344 C 2.628906 -0.921875 2.535156 -0.714844 2.421875 -0.539062 C 2.308594 -0.386719 2.179688 -0.242188 2.003906 -0.128906 C 1.820312 0 1.601562 0.0625 1.332031 0.0625 C 1.066406 0.0625 0.867188 0 0.730469 -0.128906 C 0.601562 -0.242188 0.535156 -0.386719 0.503906 -0.539062 C 0.449219 -0.714844 0.449219 -0.914062 0.496094 -1.152344 L 1.195312 -4.449219 C 1.25 -4.671875 1.332031 -4.867188 1.457031 -5.050781 C 1.570312 -5.203125 1.691406 -5.355469 1.867188 -5.46875 C 2.042969 -5.585938 2.269531 -5.660156 2.542969 -5.660156 C 2.820312 -5.660156 3.007812 -5.585938 3.140625 -5.46875 C 3.269531 -5.355469 3.34375 -5.203125 3.375 -5.050781 C 3.429688 -4.882812 3.429688 -4.6875 3.390625 -4.449219 Z M 2.566406 -4.449219 C 2.597656 -4.601562 2.582031 -4.714844 2.53125 -4.800781 C 2.5 -4.839844 2.445312 -4.859375 2.378906 -4.859375 C 2.230469 -4.859375 2.140625 -4.753906 2.085938 -4.65625 C 2.058594 -4.59375 2.035156 -4.527344 2.019531 -4.449219 L 1.316406 -1.152344 C 1.28125 -1.003906 1.296875 -0.882812 1.355469 -0.800781 C 1.386719 -0.761719 1.433594 -0.738281 1.5 -0.738281 C 1.644531 -0.738281 1.738281 -0.832031 1.789062 -0.945312 C 1.8125 -0.992188 1.84375 -1.058594 1.867188 -1.152344 Z M 2.566406 -4.449219 "/></g></g></g><g fill="rgb(56.079102%, 74.119568%, 30.979919%)" fill-opacity="1"><g transform="translate(163.380482, 56.688048)"><g><path d="M 0.304688 0 L 1.492188 -5.601562 L 2.140625 -5.601562 C 2.902344 -5.601562 3.269531 -5.449219 3.414062 -5.019531 C 3.535156 -4.59375 3.421875 -3.902344 3.183594 -2.796875 C 2.949219 -1.699219 2.773438 -1.003906 2.46875 -0.578125 C 2.15625 -0.152344 1.714844 0 0.953125 0 Z M 1.296875 -0.824219 C 1.578125 -0.824219 1.746094 -0.851562 1.890625 -1.128906 C 2.019531 -1.378906 2.125 -1.828125 2.203125 -2.195312 C 2.238281 -2.371094 2.277344 -2.574219 2.332031 -2.804688 C 2.378906 -3.03125 2.421875 -3.238281 2.460938 -3.421875 C 2.535156 -3.777344 2.628906 -4.207031 2.597656 -4.480469 C 2.574219 -4.746094 2.421875 -4.777344 2.140625 -4.777344 Z M 1.296875 -0.824219 "/></g></g></g><g fill="rgb(56.079102%, 74.119568%, 30.979919%)" fill-opacity="1"><g transform="translate(167.814697, 56.688048)"><g><path d="M 3.679688 -5.601562 L 2.734375 -1.152344 C 2.675781 -0.921875 2.582031 -0.714844 2.46875 -0.539062 C 2.355469 -0.386719 2.226562 -0.242188 2.050781 -0.128906 C 1.867188 0 1.644531 0.0625 1.378906 0.0625 C 1.113281 0.0625 0.914062 0 0.777344 -0.128906 C 0.648438 -0.242188 0.578125 -0.386719 0.546875 -0.539062 C 0.496094 -0.714844 0.496094 -0.914062 0.539062 -1.152344 L 1.484375 -5.601562 L 2.308594 -5.601562 L 1.363281 -1.152344 C 1.324219 -1.003906 1.339844 -0.882812 1.402344 -0.800781 C 1.433594 -0.761719 1.476562 -0.738281 1.546875 -0.738281 C 1.691406 -0.738281 1.78125 -0.832031 1.835938 -0.945312 C 1.859375 -0.992188 1.890625 -1.058594 1.914062 -1.152344 L 2.855469 -5.601562 Z M 3.679688 -5.601562 "/></g></g></g><g fill="rgb(56.079102%, 74.119568%, 30.979919%)" fill-opacity="1"><g transform="translate(172.203194, 56.688048)"><g><path d="M 2.847656 -1.921875 L 2.691406 -1.152344 C 2.628906 -0.921875 2.535156 -0.714844 2.421875 -0.539062 C 2.308594 -0.386719 2.179688 -0.242188 2.003906 -0.128906 C 1.820312 0 1.601562 0.0625 1.332031 0.0625 C 1.066406 0.0625 0.867188 0 0.730469 -0.128906 C 0.601562 -0.242188 0.535156 -0.386719 0.503906 -0.539062 C 0.449219 -0.714844 0.449219 -0.914062 0.496094 -1.152344 L 1.195312 -4.449219 C 1.25 -4.671875 1.332031 -4.867188 1.457031 -5.050781 C 1.570312 -5.203125 1.691406 -5.355469 1.867188 -5.46875 C 2.042969 -5.585938 2.269531 -5.660156 2.542969 -5.660156 C 2.820312 -5.660156 3.007812 -5.585938 3.140625 -5.46875 C 3.269531 -5.355469 3.34375 -5.203125 3.375 -5.050781 C 3.429688 -4.882812 3.429688 -4.6875 3.390625 -4.449219 L 3.222656 -3.679688 L 2.453125 -3.679688 L 2.621094 -4.449219 C 2.652344 -4.59375 2.636719 -4.714844 2.566406 -4.800781 C 2.535156 -4.839844 2.476562 -4.859375 2.390625 -4.859375 C 2.246094 -4.859375 2.15625 -4.753906 2.09375 -4.65625 C 2.074219 -4.601562 2.042969 -4.535156 2.019531 -4.449219 L 1.316406 -1.152344 C 1.296875 -1.003906 1.308594 -0.882812 1.371094 -0.800781 C 1.402344 -0.761719 1.449219 -0.738281 1.515625 -0.738281 C 1.691406 -0.738281 1.78125 -0.832031 1.84375 -0.945312 C 1.867188 -0.992188 1.898438 -1.058594 1.921875 -1.152344 L 2.078125 -1.921875 Z M 2.847656 -1.921875 "/></g></g></g><g fill="rgb(56.079102%, 74.119568%, 30.979919%)" fill-opacity="1"><g transform="translate(176.43931, 56.688048)"><g><path d="M 1.019531 -4.753906 L 1.203125 -5.601562 L 3.582031 -5.601562 L 3.398438 -4.753906 L 2.621094 -4.753906 L 1.613281 0 L 0.792969 0 L 1.796875 -4.753906 Z M 1.019531 -4.753906 "/></g></g></g><g fill="rgb(56.079102%, 74.119568%, 30.979919%)" fill-opacity="1"><g transform="translate(180.44686, 56.688048)"><g><path d="M 2.535156 -4.097656 C 2.574219 -4.28125 2.613281 -4.488281 2.589844 -4.648438 C 2.566406 -4.800781 2.507812 -4.90625 2.378906 -4.90625 C 2.164062 -4.898438 2.050781 -4.679688 1.980469 -4.351562 C 1.941406 -4.160156 1.972656 -3.960938 2.058594 -3.75 C 2.140625 -3.535156 2.238281 -3.3125 2.355469 -3.078125 C 2.5 -2.796875 2.613281 -2.507812 2.703125 -2.226562 C 2.789062 -1.941406 2.828125 -1.652344 2.757812 -1.347656 C 2.675781 -0.976562 2.550781 -0.632812 2.316406 -0.367188 C 2.078125 -0.0976562 1.773438 0.0625 1.316406 0.0625 C 0.792969 0.0625 0.535156 -0.136719 0.433594 -0.441406 C 0.320312 -0.746094 0.382812 -1.144531 0.464844 -1.570312 L 1.289062 -1.644531 C 1.234375 -1.410156 1.195312 -1.171875 1.21875 -1 C 1.242188 -0.816406 1.304688 -0.691406 1.476562 -0.691406 C 1.722656 -0.691406 1.859375 -0.953125 1.941406 -1.308594 C 1.980469 -1.492188 1.941406 -1.707031 1.859375 -1.925781 C 1.835938 -1.980469 1.8125 -2.042969 1.789062 -2.09375 C 1.769531 -2.148438 1.746094 -2.210938 1.722656 -2.261719 C 1.667969 -2.378906 1.609375 -2.5 1.546875 -2.628906 C 1.484375 -2.757812 1.425781 -2.886719 1.363281 -3.03125 C 1.234375 -3.320312 1.164062 -3.613281 1.144531 -3.902344 C 1.121094 -4.046875 1.144531 -4.199219 1.171875 -4.351562 C 1.234375 -4.65625 1.371094 -4.984375 1.609375 -5.234375 C 1.828125 -5.476562 2.132812 -5.652344 2.523438 -5.660156 C 3.03125 -5.667969 3.269531 -5.460938 3.367188 -5.164062 C 3.457031 -4.859375 3.429688 -4.488281 3.359375 -4.175781 Z M 2.535156 -4.097656 "/></g></g></g><g fill="rgb(56.079102%, 74.119568%, 30.979919%)" fill-opacity="1"><g transform="translate(184.660122, 56.688048)"><g/></g></g><g fill="rgb(56.079102%, 74.119568%, 30.979919%)" fill-opacity="1"><g transform="translate(187.423521, 56.688048)"><g><path d="M 0.304688 0 L 1.492188 -5.601562 L 2.140625 -5.601562 C 2.902344 -5.601562 3.269531 -5.449219 3.414062 -5.019531 C 3.535156 -4.59375 3.421875 -3.902344 3.183594 -2.796875 C 2.949219 -1.699219 2.773438 -1.003906 2.46875 -0.578125 C 2.15625 -0.152344 1.714844 0 0.953125 0 Z M 1.296875 -0.824219 C 1.578125 -0.824219 1.746094 -0.851562 1.890625 -1.128906 C 2.019531 -1.378906 2.125 -1.828125 2.203125 -2.195312 C 2.238281 -2.371094 2.277344 -2.574219 2.332031 -2.804688 C 2.378906 -3.03125 2.421875 -3.238281 2.460938 -3.421875 C 2.535156 -3.777344 2.628906 -4.207031 2.597656 -4.480469 C 2.574219 -4.746094 2.421875 -4.777344 2.140625 -4.777344 Z M 1.296875 -0.824219 "/></g></g></g><g fill="rgb(56.079102%, 74.119568%, 30.979919%)" fill-opacity="1"><g transform="translate(191.857733, 56.688048)"><g><path d="M 1.492188 -5.601562 L 2.316406 -5.601562 L 1.128906 0 L 0.304688 0 Z M 1.492188 -5.601562 "/></g></g></g><g fill="rgb(56.079102%, 74.119568%, 30.979919%)" fill-opacity="1"><g transform="translate(194.890056, 56.688048)"><g><path d="M 1.773438 0 L 1.84375 -2.363281 L 1.621094 -2.363281 L 1.128906 0 L 0.304688 0 L 1.492188 -5.601562 L 2.316406 -5.601562 C 3.300781 -5.601562 3.597656 -5.050781 3.375 -3.984375 C 3.253906 -3.429688 3 -2.925781 2.644531 -2.710938 L 2.597656 0 Z M 1.789062 -3.125 C 1.90625 -3.125 2.058594 -3.132812 2.203125 -3.246094 C 2.347656 -3.359375 2.492188 -3.558594 2.574219 -3.953125 C 2.660156 -4.351562 2.605469 -4.554688 2.507812 -4.671875 C 2.40625 -4.785156 2.253906 -4.785156 2.140625 -4.785156 Z M 1.789062 -3.125 "/></g></g></g><g fill="rgb(56.079102%, 74.119568%, 30.979919%)" fill-opacity="1"><g transform="translate(199.240457, 56.688048)"><g><path d="M 1.492188 -5.601562 L 3.375 -5.601562 L 3.191406 -4.753906 L 2.132812 -4.753906 L 1.820312 -3.285156 L 2.582031 -3.285156 L 2.390625 -2.382812 L 1.628906 -2.382812 L 1.304688 -0.84375 L 2.363281 -0.84375 L 2.1875 0 L 0.304688 0 Z M 1.492188 -5.601562 "/></g></g></g><g fill="rgb(56.079102%, 74.119568%, 30.979919%)" fill-opacity="1"><g transform="translate(203.179433, 56.688048)"><g><path d="M 2.847656 -1.921875 L 2.691406 -1.152344 C 2.628906 -0.921875 2.535156 -0.714844 2.421875 -0.539062 C 2.308594 -0.386719 2.179688 -0.242188 2.003906 -0.128906 C 1.820312 0 1.601562 0.0625 1.332031 0.0625 C 1.066406 0.0625 0.867188 0 0.730469 -0.128906 C 0.601562 -0.242188 0.535156 -0.386719 0.503906 -0.539062 C 0.449219 -0.714844 0.449219 -0.914062 0.496094 -1.152344 L 1.195312 -4.449219 C 1.25 -4.671875 1.332031 -4.867188 1.457031 -5.050781 C 1.570312 -5.203125 1.691406 -5.355469 1.867188 -5.46875 C 2.042969 -5.585938 2.269531 -5.660156 2.542969 -5.660156 C 2.820312 -5.660156 3.007812 -5.585938 3.140625 -5.46875 C 3.269531 -5.355469 3.34375 -5.203125 3.375 -5.050781 C 3.429688 -4.882812 3.429688 -4.6875 3.390625 -4.449219 L 3.222656 -3.679688 L 2.453125 -3.679688 L 2.621094 -4.449219 C 2.652344 -4.59375 2.636719 -4.714844 2.566406 -4.800781 C 2.535156 -4.839844 2.476562 -4.859375 2.390625 -4.859375 C 2.246094 -4.859375 2.15625 -4.753906 2.09375 -4.65625 C 2.074219 -4.601562 2.042969 -4.535156 2.019531 -4.449219 L 1.316406 -1.152344 C 1.296875 -1.003906 1.308594 -0.882812 1.371094 -0.800781 C 1.402344 -0.761719 1.449219 -0.738281 1.515625 -0.738281 C 1.691406 -0.738281 1.78125 -0.832031 1.84375 -0.945312 C 1.867188 -0.992188 1.898438 -1.058594 1.921875 -1.152344 L 2.078125 -1.921875 Z M 2.847656 -1.921875 "/></g></g></g><g fill="rgb(56.079102%, 74.119568%, 30.979919%)" fill-opacity="1"><g transform="translate(207.415547, 56.688048)"><g><path d="M 1.019531 -4.753906 L 1.203125 -5.601562 L 3.582031 -5.601562 L 3.398438 -4.753906 L 2.621094 -4.753906 L 1.613281 0 L 0.792969 0 L 1.796875 -4.753906 Z M 1.019531 -4.753906 "/></g></g></g><g fill="rgb(56.079102%, 74.119568%, 30.979919%)" fill-opacity="1"><g transform="translate(211.423092, 56.688048)"><g><path d="M 1.492188 -5.601562 L 2.316406 -5.601562 L 1.289062 -0.761719 L 2.378906 -0.761719 L 2.21875 0 L 0.304688 0 Z M 1.492188 -5.601562 "/></g></g></g><g fill="rgb(56.079102%, 74.119568%, 30.979919%)" fill-opacity="1"><g transform="translate(215.270644, 56.688048)"><g><path d="M 2.078125 -3.808594 L 2.085938 -3.757812 L 2.101562 -3.757812 L 2.140625 -3.808594 L 2.933594 -5.601562 L 3.742188 -5.601562 L 2.21875 -2.382812 L 1.714844 0 L 0.890625 0 L 1.394531 -2.382812 L 1.242188 -5.601562 L 2.050781 -5.601562 Z M 2.078125 -3.808594 "/></g></g></g><g fill="rgb(56.079102%, 74.119568%, 30.979919%)" fill-opacity="1"><g transform="translate(219.476289, 56.688048)"><g/></g></g><g fill="rgb(56.079102%, 74.119568%, 30.979919%)" fill-opacity="1"><g transform="translate(222.249567, 56.688048)"><g><path d="M 1.019531 -4.753906 L 1.203125 -5.601562 L 3.582031 -5.601562 L 3.398438 -4.753906 L 2.621094 -4.753906 L 1.613281 0 L 0.792969 0 L 1.796875 -4.753906 Z M 1.019531 -4.753906 "/></g></g></g><g fill="rgb(56.079102%, 74.119568%, 30.979919%)" fill-opacity="1"><g transform="translate(226.257114, 56.688048)"><g><path d="M 2.691406 -1.152344 C 2.628906 -0.921875 2.535156 -0.714844 2.421875 -0.539062 C 2.308594 -0.386719 2.179688 -0.242188 2.003906 -0.128906 C 1.820312 0 1.601562 0.0625 1.332031 0.0625 C 1.066406 0.0625 0.867188 0 0.730469 -0.128906 C 0.601562 -0.242188 0.535156 -0.386719 0.503906 -0.539062 C 0.449219 -0.714844 0.449219 -0.914062 0.496094 -1.152344 L 1.195312 -4.449219 C 1.25 -4.671875 1.332031 -4.867188 1.457031 -5.050781 C 1.570312 -5.203125 1.691406 -5.355469 1.867188 -5.46875 C 2.042969 -5.585938 2.269531 -5.660156 2.542969 -5.660156 C 2.820312 -5.660156 3.007812 -5.585938 3.140625 -5.46875 C 3.269531 -5.355469 3.34375 -5.203125 3.375 -5.050781 C 3.429688 -4.882812 3.429688 -4.6875 3.390625 -4.449219 Z M 2.566406 -4.449219 C 2.597656 -4.601562 2.582031 -4.714844 2.53125 -4.800781 C 2.5 -4.839844 2.445312 -4.859375 2.378906 -4.859375 C 2.230469 -4.859375 2.140625 -4.753906 2.085938 -4.65625 C 2.058594 -4.59375 2.035156 -4.527344 2.019531 -4.449219 L 1.316406 -1.152344 C 1.28125 -1.003906 1.296875 -0.882812 1.355469 -0.800781 C 1.386719 -0.761719 1.433594 -0.738281 1.5 -0.738281 C 1.644531 -0.738281 1.738281 -0.832031 1.789062 -0.945312 C 1.8125 -0.992188 1.84375 -1.058594 1.867188 -1.152344 Z M 2.566406 -4.449219 "/></g></g></g><g fill="rgb(56.079102%, 74.119568%, 30.979919%)" fill-opacity="1"><g transform="translate(230.554184, 56.688048)"><g/></g></g><g fill="rgb(56.079102%, 74.119568%, 30.979919%)" fill-opacity="1"><g transform="translate(233.32746, 56.688048)"><g><path d="M 2.847656 -1.921875 L 2.691406 -1.152344 C 2.628906 -0.921875 2.535156 -0.714844 2.421875 -0.539062 C 2.308594 -0.386719 2.179688 -0.242188 2.003906 -0.128906 C 1.820312 0 1.601562 0.0625 1.332031 0.0625 C 1.066406 0.0625 0.867188 0 0.730469 -0.128906 C 0.601562 -0.242188 0.535156 -0.386719 0.503906 -0.539062 C 0.449219 -0.714844 0.449219 -0.914062 0.496094 -1.152344 L 1.195312 -4.449219 C 1.25 -4.671875 1.332031 -4.867188 1.457031 -5.050781 C 1.570312 -5.203125 1.691406 -5.355469 1.867188 -5.46875 C 2.042969 -5.585938 2.269531 -5.660156 2.542969 -5.660156 C 2.820312 -5.660156 3.007812 -5.585938 3.140625 -5.46875 C 3.269531 -5.355469 3.34375 -5.203125 3.375 -5.050781 C 3.429688 -4.882812 3.429688 -4.6875 3.390625 -4.449219 L 3.222656 -3.679688 L 2.453125 -3.679688 L 2.621094 -4.449219 C 2.652344 -4.59375 2.636719 -4.714844 2.566406 -4.800781 C 2.535156 -4.839844 2.476562 -4.859375 2.390625 -4.859375 C 2.246094 -4.859375 2.15625 -4.753906 2.09375 -4.65625 C 2.074219 -4.601562 2.042969 -4.535156 2.019531 -4.449219 L 1.316406 -1.152344 C 1.296875 -1.003906 1.308594 -0.882812 1.371094 -0.800781 C 1.402344 -0.761719 1.449219 -0.738281 1.515625 -0.738281 C 1.691406 -0.738281 1.78125 -0.832031 1.84375 -0.945312 C 1.867188 -0.992188 1.898438 -1.058594 1.921875 -1.152344 L 2.078125 -1.921875 Z M 2.847656 -1.921875 "/></g></g></g><g fill="rgb(56.079102%, 74.119568%, 30.979919%)" fill-opacity="1"><g transform="translate(237.563571, 56.688048)"><g><path d="M 2.691406 -1.152344 C 2.628906 -0.921875 2.535156 -0.714844 2.421875 -0.539062 C 2.308594 -0.386719 2.179688 -0.242188 2.003906 -0.128906 C 1.820312 0 1.601562 0.0625 1.332031 0.0625 C 1.066406 0.0625 0.867188 0 0.730469 -0.128906 C 0.601562 -0.242188 0.535156 -0.386719 0.503906 -0.539062 C 0.449219 -0.714844 0.449219 -0.914062 0.496094 -1.152344 L 1.195312 -4.449219 C 1.25 -4.671875 1.332031 -4.867188 1.457031 -5.050781 C 1.570312 -5.203125 1.691406 -5.355469 1.867188 -5.46875 C 2.042969 -5.585938 2.269531 -5.660156 2.542969 -5.660156 C 2.820312 -5.660156 3.007812 -5.585938 3.140625 -5.46875 C 3.269531 -5.355469 3.34375 -5.203125 3.375 -5.050781 C 3.429688 -4.882812 3.429688 -4.6875 3.390625 -4.449219 Z M 2.566406 -4.449219 C 2.597656 -4.601562 2.582031 -4.714844 2.53125 -4.800781 C 2.5 -4.839844 2.445312 -4.859375 2.378906 -4.859375 C 2.230469 -4.859375 2.140625 -4.753906 2.085938 -4.65625 C 2.058594 -4.59375 2.035156 -4.527344 2.019531 -4.449219 L 1.316406 -1.152344 C 1.28125 -1.003906 1.296875 -0.882812 1.355469 -0.800781 C 1.386719 -0.761719 1.433594 -0.738281 1.5 -0.738281 C 1.644531 -0.738281 1.738281 -0.832031 1.789062 -0.945312 C 1.8125 -0.992188 1.84375 -1.058594 1.867188 -1.152344 Z M 2.566406 -4.449219 "/></g></g></g><g fill="rgb(56.079102%, 74.119568%, 30.979919%)" fill-opacity="1"><g transform="translate(241.860639, 56.688048)"><g><path d="M 1.789062 -2.917969 L 1.773438 -3.175781 L 1.730469 -3.175781 L 1.058594 0 L 0.304688 0 L 1.492188 -5.601562 L 2.226562 -5.601562 L 2.398438 -2.683594 L 2.414062 -2.421875 L 2.460938 -2.421875 L 3.140625 -5.601562 L 3.894531 -5.601562 L 2.703125 0 L 1.972656 0 Z M 1.789062 -2.917969 "/></g></g></g><g fill="rgb(56.079102%, 74.119568%, 30.979919%)" fill-opacity="1"><g transform="translate(246.470083, 56.688048)"><g><path d="M 2.535156 -4.097656 C 2.574219 -4.28125 2.613281 -4.488281 2.589844 -4.648438 C 2.566406 -4.800781 2.507812 -4.90625 2.378906 -4.90625 C 2.164062 -4.898438 2.050781 -4.679688 1.980469 -4.351562 C 1.941406 -4.160156 1.972656 -3.960938 2.058594 -3.75 C 2.140625 -3.535156 2.238281 -3.3125 2.355469 -3.078125 C 2.5 -2.796875 2.613281 -2.507812 2.703125 -2.226562 C 2.789062 -1.941406 2.828125 -1.652344 2.757812 -1.347656 C 2.675781 -0.976562 2.550781 -0.632812 2.316406 -0.367188 C 2.078125 -0.0976562 1.773438 0.0625 1.316406 0.0625 C 0.792969 0.0625 0.535156 -0.136719 0.433594 -0.441406 C 0.320312 -0.746094 0.382812 -1.144531 0.464844 -1.570312 L 1.289062 -1.644531 C 1.234375 -1.410156 1.195312 -1.171875 1.21875 -1 C 1.242188 -0.816406 1.304688 -0.691406 1.476562 -0.691406 C 1.722656 -0.691406 1.859375 -0.953125 1.941406 -1.308594 C 1.980469 -1.492188 1.941406 -1.707031 1.859375 -1.925781 C 1.835938 -1.980469 1.8125 -2.042969 1.789062 -2.09375 C 1.769531 -2.148438 1.746094 -2.210938 1.722656 -2.261719 C 1.667969 -2.378906 1.609375 -2.5 1.546875 -2.628906 C 1.484375 -2.757812 1.425781 -2.886719 1.363281 -3.03125 C 1.234375 -3.320312 1.164062 -3.613281 1.144531 -3.902344 C 1.121094 -4.046875 1.144531 -4.199219 1.171875 -4.351562 C 1.234375 -4.65625 1.371094 -4.984375 1.609375 -5.234375 C 1.828125 -5.476562 2.132812 -5.652344 2.523438 -5.660156 C 3.03125 -5.667969 3.269531 -5.460938 3.367188 -5.164062 C 3.457031 -4.859375 3.429688 -4.488281 3.359375 -4.175781 Z M 2.535156 -4.097656 "/></g></g></g><g fill="rgb(56.079102%, 74.119568%, 30.979919%)" fill-opacity="1"><g transform="translate(250.683341, 56.688048)"><g><path d="M 3.679688 -5.601562 L 2.734375 -1.152344 C 2.675781 -0.921875 2.582031 -0.714844 2.46875 -0.539062 C 2.355469 -0.386719 2.226562 -0.242188 2.050781 -0.128906 C 1.867188 0 1.644531 0.0625 1.378906 0.0625 C 1.113281 0.0625 0.914062 0 0.777344 -0.128906 C 0.648438 -0.242188 0.578125 -0.386719 0.546875 -0.539062 C 0.496094 -0.714844 0.496094 -0.914062 0.539062 -1.152344 L 1.484375 -5.601562 L 2.308594 -5.601562 L 1.363281 -1.152344 C 1.324219 -1.003906 1.339844 -0.882812 1.402344 -0.800781 C 1.433594 -0.761719 1.476562 -0.738281 1.546875 -0.738281 C 1.691406 -0.738281 1.78125 -0.832031 1.835938 -0.945312 C 1.859375 -0.992188 1.890625 -1.058594 1.914062 -1.152344 L 2.855469 -5.601562 Z M 3.679688 -5.601562 "/></g></g></g><g fill="rgb(56.079102%, 74.119568%, 30.979919%)" fill-opacity="1"><g transform="translate(255.071834, 56.688048)"><g><path d="M 1.667969 0 L 1.890625 -3.519531 L 1.90625 -3.757812 L 1.859375 -3.757812 L 1.066406 0 L 0.304688 0 L 1.492188 -5.601562 L 2.5 -5.601562 L 2.4375 -3.039062 L 2.414062 -2.742188 L 2.429688 -2.742188 L 2.53125 -3.039062 L 3.566406 -5.601562 L 4.570312 -5.601562 L 3.382812 0 L 2.621094 0 L 3.414062 -3.757812 L 3.367188 -3.757812 L 3.292969 -3.519531 L 2.019531 0 Z M 1.667969 0 "/></g></g></g><g fill="rgb(56.079102%, 74.119568%, 30.979919%)" fill-opacity="1"><g transform="translate(260.359369, 56.688048)"><g><path d="M 1.492188 -5.601562 L 3.375 -5.601562 L 3.191406 -4.753906 L 2.132812 -4.753906 L 1.820312 -3.285156 L 2.582031 -3.285156 L 2.390625 -2.382812 L 1.628906 -2.382812 L 1.304688 -0.84375 L 2.363281 -0.84375 L 2.1875 0 L 0.304688 0 Z M 1.492188 -5.601562 "/></g></g></g><g fill="rgb(56.079102%, 74.119568%, 30.979919%)" fill-opacity="1"><g transform="translate(264.298342, 56.688048)"><g><path d="M 1.773438 0 L 1.84375 -2.363281 L 1.621094 -2.363281 L 1.128906 0 L 0.304688 0 L 1.492188 -5.601562 L 2.316406 -5.601562 C 3.300781 -5.601562 3.597656 -5.050781 3.375 -3.984375 C 3.253906 -3.429688 3 -2.925781 2.644531 -2.710938 L 2.597656 0 Z M 1.789062 -3.125 C 1.90625 -3.125 2.058594 -3.132812 2.203125 -3.246094 C 2.347656 -3.359375 2.492188 -3.558594 2.574219 -3.953125 C 2.660156 -4.351562 2.605469 -4.554688 2.507812 -4.671875 C 2.40625 -4.785156 2.253906 -4.785156 2.140625 -4.785156 Z M 1.789062 -3.125 "/></g></g></g><g clip-path="url(#id3)"><g fill="rgb(56.079102%, 74.119568%, 30.979919%)" fill-opacity="1"><g transform="translate(268.648742, 56.688048)"><g><path d="M 2.535156 -4.097656 C 2.574219 -4.28125 2.613281 -4.488281 2.589844 -4.648438 C 2.566406 -4.800781 2.507812 -4.90625 2.378906 -4.90625 C 2.164062 -4.898438 2.050781 -4.679688 1.980469 -4.351562 C 1.941406 -4.160156 1.972656 -3.960938 2.058594 -3.75 C 2.140625 -3.535156 2.238281 -3.3125 2.355469 -3.078125 C 2.5 -2.796875 2.613281 -2.507812 2.703125 -2.226562 C 2.789062 -1.941406 2.828125 -1.652344 2.757812 -1.347656 C 2.675781 -0.976562 2.550781 -0.632812 2.316406 -0.367188 C 2.078125 -0.0976562 1.773438 0.0625 1.316406 0.0625 C 0.792969 0.0625 0.535156 -0.136719 0.433594 -0.441406 C 0.320312 -0.746094 0.382812 -1.144531 0.464844 -1.570312 L 1.289062 -1.644531 C 1.234375 -1.410156 1.195312 -1.171875 1.21875 -1 C 1.242188 -0.816406 1.304688 -0.691406 1.476562 -0.691406 C 1.722656 -0.691406 1.859375 -0.953125 1.941406 -1.308594 C 1.980469 -1.492188 1.941406 -1.707031 1.859375 -1.925781 C 1.835938 -1.980469 1.8125 -2.042969 1.789062 -2.09375 C 1.769531 -2.148438 1.746094 -2.210938 1.722656 -2.261719 C 1.667969 -2.378906 1.609375 -2.5 1.546875 -2.628906 C 1.484375 -2.757812 1.425781 -2.886719 1.363281 -3.03125 C 1.234375 -3.320312 1.164062 -3.613281 1.144531 -3.902344 C 1.121094 -4.046875 1.144531 -4.199219 1.171875 -4.351562 C 1.234375 -4.65625 1.371094 -4.984375 1.609375 -5.234375 C 1.828125 -5.476562 2.132812 -5.652344 2.523438 -5.660156 C 3.03125 -5.667969 3.269531 -5.460938 3.367188 -5.164062 C 3.457031 -4.859375 3.429688 -4.488281 3.359375 -4.175781 Z M 2.535156 -4.097656 "/></g></g></g></g><g fill="rgb(56.079102%, 74.119568%, 30.979919%)" fill-opacity="1"><g transform="translate(171.898064, 66.846558)"><g/></g></g></svg>