<svg xmlns="http://www.w3.org/2000/svg" xmlns:xlink="http://www.w3.org/1999/xlink" width="365" zoomAndPan="magnify" viewBox="0 0 273.75 67.499998" height="90" preserveAspectRatio="xMidYMid meet" version="1.0"><defs><g/><clipPath id="id1"><path d="M 18 6.707031 L 71.5625 6.707031 L 71.5625 37 L 18 37 Z M 18 6.707031 " clip-rule="nonzero"/></clipPath><clipPath id="id2"><path d="M 18 33 L 71.5625 33 L 71.5625 60.359375 L 18 60.359375 Z M 18 33 " clip-rule="nonzero"/></clipPath></defs><g clip-path="url(#id1)"><path fill="rgb(56.079102%, 74.119568%, 30.979919%)" d="M 44.101562 23.492188 C 42.328125 22.070312 41.3125 19.941406 41.3125 17.609375 C 41.3125 15.023438 42.632812 12.640625 44.761719 11.269531 C 46.890625 12.640625 48.210938 15.074219 48.210938 17.609375 C 48.210938 19.890625 47.195312 22.070312 45.421875 23.492188 L 44.761719 15.429688 Z M 35.632812 23.695312 C 39.183594 24.101562 41.972656 26.941406 42.328125 30.488281 C 40.703125 28.054688 37.558594 30.4375 34.0625 27.648438 C 32.488281 26.382812 31.476562 24.507812 31.273438 22.476562 C 33.960938 20.5 37.558594 20.449219 40.296875 22.273438 L 40.398438 22.324219 C 42.882812 24 44.457031 26.839844 44.507812 29.882812 C 44.558594 26.839844 46.128906 24 48.613281 22.324219 L 48.714844 22.273438 C 51.453125 20.449219 55.105469 20.550781 57.742188 22.476562 C 57.539062 24.507812 56.527344 26.382812 54.953125 27.648438 C 51.453125 30.4375 48.3125 28.105469 46.738281 30.488281 C 47.09375 26.941406 49.882812 24.101562 53.433594 23.695312 C 47.703125 24.253906 44.964844 28.5625 45.21875 36.574219 C 44.761719 36.574219 44.253906 36.523438 43.746094 36.421875 C 43.949219 28.511719 41.210938 24.304688 35.53125 23.695312 Z M 44.761719 6.65625 C 52.164062 6.65625 58.859375 9.648438 63.726562 14.515625 C 68.59375 19.382812 71.585938 26.078125 71.585938 33.480469 C 71.585938 34.394531 71.535156 35.257812 71.484375 36.117188 C 70.675781 36.167969 70.015625 36.167969 69.457031 36.167969 C 69.558594 35.308594 69.609375 34.394531 69.609375 33.480469 C 69.609375 26.636719 66.820312 20.449219 62.359375 15.9375 C 57.894531 11.472656 51.65625 8.683594 44.8125 8.683594 C 37.964844 8.683594 31.726562 11.472656 27.265625 15.9375 C 22.804688 20.449219 20.015625 26.636719 20.015625 33.480469 C 20.015625 34.394531 20.066406 35.308594 20.167969 36.167969 C 19.609375 36.167969 18.949219 36.167969 18.136719 36.117188 C 18.035156 35.257812 18.035156 34.34375 18.035156 33.480469 C 18.035156 26.078125 21.027344 19.382812 25.898438 14.515625 C 30.765625 9.699219 37.457031 6.65625 44.863281 6.65625 Z M 44.761719 6.65625 " fill-opacity="1" fill-rule="evenodd"/></g><g clip-path="url(#id2)"><path fill="rgb(1.959229%, 30.198669%, 23.139954%)" d="M 26.148438 35.8125 C 28.28125 34.902344 30.410156 33.988281 33.046875 33.988281 C 35.328125 33.988281 37.457031 34.902344 39.589844 35.8125 C 41.566406 36.675781 43.492188 37.488281 45.371094 37.488281 C 47.246094 37.488281 49.222656 36.625 51.203125 35.8125 C 53.382812 34.902344 55.511719 33.988281 57.792969 33.988281 C 59.972656 33.988281 62.054688 34.902344 64.132812 35.8125 C 67.480469 37.335938 68.339844 37.589844 71.382812 37.488281 C 70.523438 43.320312 67.785156 48.542969 63.828125 52.5 C 58.960938 57.367188 52.265625 60.359375 44.863281 60.359375 C 37.457031 60.359375 30.765625 57.367188 25.898438 52.5 C 21.941406 48.542969 19.203125 43.320312 18.339844 37.488281 C 21.433594 37.640625 22.652344 37.386719 26.25 35.8125 Z M 43.59375 39.3125 C 43.390625 40.125 42.984375 40.734375 42.480469 41.140625 C 41.109375 42.507812 39.03125 42.964844 37.207031 42.304688 C 36.039062 41.898438 35.023438 41.949219 34.011719 42.40625 C 32.4375 43.066406 30.511719 45.550781 28.789062 43.625 C 28.738281 43.523438 28.585938 43.523438 28.484375 43.574219 C 28.382812 43.625 28.332031 43.777344 28.382812 43.878906 C 29.800781 45.347656 31.222656 45.550781 32.691406 44.382812 C 33.960938 43.21875 35.074219 42.863281 35.988281 43.21875 C 36.242188 43.320312 36.800781 43.574219 36.800781 43.929688 C 36.800781 44.03125 35.9375 44.890625 35.734375 45.144531 C 34.871094 46.414062 35.023438 47.527344 32.996094 47.679688 C 32.894531 47.679688 32.84375 47.78125 32.84375 47.882812 C 32.84375 47.984375 32.945312 48.035156 33.046875 48.035156 C 36.496094 48.542969 35.988281 44.535156 38.472656 44.230469 C 39.84375 44.03125 40.296875 44.484375 41.871094 43.675781 C 43.1875 43.167969 43.695312 43.21875 43.492188 43.878906 C 43.238281 44.738281 42.785156 45.753906 42.125 46.921875 C 41.210938 48.644531 41.109375 50.164062 41.769531 51.433594 C 42.785156 53.410156 42.429688 54.984375 40.652344 56.046875 C 40.550781 56.148438 40.550781 56.300781 40.601562 56.402344 C 40.703125 56.503906 40.855469 56.554688 40.957031 56.503906 C 43.238281 55.339844 43.949219 53.714844 43.035156 51.585938 C 42.175781 49.710938 42.328125 48.289062 43.492188 47.324219 C 44.050781 46.871094 44.457031 48.289062 44.761719 48.644531 C 45.671875 49.859375 47.09375 50.164062 46.535156 52.398438 C 46.484375 52.5 46.535156 52.601562 46.585938 52.648438 C 46.636719 52.699219 46.738281 52.75 46.839844 52.75 C 46.941406 52.75 46.992188 52.648438 47.042969 52.550781 C 47.449219 51.433594 47.398438 50.46875 46.941406 49.761719 C 45.925781 48.035156 44.050781 47.019531 45.015625 44.738281 C 45.21875 44.332031 45.574219 44.230469 46.078125 44.433594 C 47.449219 44.789062 48.5625 45.042969 49.476562 45.144531 C 51.605469 45.347656 52.773438 43.929688 54.140625 44.992188 C 54.699219 45.449219 55.105469 46.007812 55.359375 46.769531 C 56.070312 48.847656 55.105469 49.609375 57.894531 50.875 C 57.996094 50.925781 58.148438 50.875 58.25 50.722656 C 58.300781 50.621094 58.300781 50.46875 58.199219 50.367188 C 55.308594 48.898438 57.945312 46.972656 55.714844 44.738281 C 55.613281 44.636719 55.613281 44.433594 55.714844 44.28125 C 55.816406 44.132812 56.019531 44.132812 56.171875 44.230469 C 58.605469 45.703125 60.683594 45.703125 62.460938 44.230469 C 62.609375 44.082031 62.609375 43.878906 62.507812 43.726562 C 62.410156 43.574219 62.207031 43.523438 62.054688 43.574219 C 59.570312 44.941406 58.402344 43.929688 56.324219 42.914062 C 55.15625 42.355469 53.941406 42.355469 52.570312 43.015625 C 50.035156 43.980469 48.007812 43.421875 46.433594 41.191406 C 46.078125 40.683594 45.824219 40.074219 45.625 39.414062 C 44.914062 39.414062 44.203125 39.3125 43.542969 39.210938 Z M 43.59375 39.3125 " fill-opacity="1" fill-rule="evenodd"/></g><g fill="rgb(1.959229%, 30.198669%, 23.139954%)" fill-opacity="1"><g transform="translate(93.285421, 38.474247)"><g><path d="M 5.4375 -7.5 L 3.46875 -7.5 L 3.46875 0 L 0.9375 0 L 0.9375 -17.226562 L 3.46875 -17.226562 L 3.46875 -10.101562 L 5.4375 -10.101562 L 5.4375 -17.226562 L 7.96875 -17.226562 L 7.96875 0 L 5.4375 0 Z M 5.4375 -7.5 "/></g></g></g><g fill="rgb(1.959229%, 30.198669%, 23.139954%)" fill-opacity="1"><g transform="translate(105.307495, 38.474247)"><g><path d="M 0.9375 -17.226562 L 6.726562 -17.226562 L 6.726562 -14.625 L 3.46875 -14.625 L 3.46875 -10.101562 L 5.8125 -10.101562 L 5.8125 -7.335938 L 3.46875 -7.335938 L 3.46875 -2.601562 L 6.726562 -2.601562 L 6.726562 0 L 0.9375 0 Z M 0.9375 -17.226562 "/></g></g></g><g fill="rgb(1.959229%, 30.198669%, 23.139954%)" fill-opacity="1"><g transform="translate(115.618885, 38.474247)"><g><path d="M 0.9375 -17.226562 L 3.46875 -17.226562 L 3.46875 -2.34375 L 6.820312 -2.34375 L 6.820312 0 L 0.9375 0 Z M 0.9375 -17.226562 "/></g></g></g><g fill="rgb(1.959229%, 30.198669%, 23.139954%)" fill-opacity="1"><g transform="translate(125.649062, 38.474247)"><g><path d="M 0.9375 -17.226562 L 3.46875 -17.226562 L 3.46875 -2.34375 L 6.820312 -2.34375 L 6.820312 0 L 0.9375 0 Z M 0.9375 -17.226562 "/></g></g></g><g fill="rgb(1.959229%, 30.198669%, 23.139954%)" fill-opacity="1"><g transform="translate(135.67924, 38.474247)"><g><path d="M 7.523438 -3.539062 C 7.5 -2.835938 7.359375 -2.203125 7.101562 -1.664062 C 6.890625 -1.195312 6.5625 -0.75 6.09375 -0.398438 C 5.625 -0.0234375 4.992188 0.1875 4.148438 0.1875 C 3.304688 0.1875 2.648438 -0.0234375 2.179688 -0.398438 C 1.710938 -0.75 1.40625 -1.195312 1.195312 -1.664062 C 0.9375 -2.203125 0.796875 -2.835938 0.773438 -3.539062 L 0.773438 -13.6875 C 0.796875 -14.367188 0.9375 -15 1.195312 -15.539062 C 1.40625 -16.007812 1.710938 -16.476562 2.179688 -16.828125 C 2.648438 -17.179688 3.304688 -17.414062 4.148438 -17.414062 C 4.992188 -17.414062 5.625 -17.179688 6.09375 -16.828125 C 6.5625 -16.476562 6.890625 -16.007812 7.101562 -15.539062 C 7.359375 -15 7.5 -14.367188 7.523438 -13.6875 Z M 4.992188 -13.6875 C 4.992188 -14.15625 4.898438 -14.484375 4.664062 -14.765625 C 4.546875 -14.882812 4.359375 -14.953125 4.148438 -14.953125 C 3.703125 -14.953125 3.492188 -14.625 3.398438 -14.320312 C 3.328125 -14.132812 3.304688 -13.921875 3.304688 -13.6875 L 3.304688 -3.539062 C 3.304688 -3.046875 3.421875 -2.71875 3.65625 -2.460938 C 3.773438 -2.34375 3.9375 -2.273438 4.148438 -2.273438 C 4.59375 -2.273438 4.804688 -2.554688 4.898438 -2.90625 C 4.96875 -3.070312 4.992188 -3.28125 4.992188 -3.539062 Z M 4.992188 -13.6875 "/></g></g></g><g fill="rgb(1.959229%, 30.198669%, 23.139954%)" fill-opacity="1"><g transform="translate(147.092029, 38.474247)"><g/></g></g><g fill="rgb(1.959229%, 30.198669%, 23.139954%)" fill-opacity="1"><g transform="translate(153.818, 38.474247)"><g><path d="M 5.4375 -7.5 L 3.46875 -7.5 L 3.46875 0 L 0.9375 0 L 0.9375 -17.226562 L 3.46875 -17.226562 L 3.46875 -10.101562 L 5.4375 -10.101562 L 5.4375 -17.226562 L 7.96875 -17.226562 L 7.96875 0 L 5.4375 0 Z M 5.4375 -7.5 "/></g></g></g><g fill="rgb(1.959229%, 30.198669%, 23.139954%)" fill-opacity="1"><g transform="translate(165.84007, 38.474247)"><g><path d="M 0.234375 0 L 2.835938 -17.226562 L 5.929688 -17.226562 L 8.53125 0 L 6.070312 0 L 5.601562 -3.515625 L 3.164062 -3.515625 L 2.695312 0 Z M 4.523438 -11.625 L 4.453125 -12.070312 L 4.3125 -12.070312 L 4.242188 -11.625 L 3.515625 -6.1875 L 5.25 -6.1875 Z M 4.523438 -11.625 "/></g></g></g><g fill="rgb(1.959229%, 30.198669%, 23.139954%)" fill-opacity="1"><g transform="translate(177.721539, 38.474247)"><g><path d="M 5.460938 0 L 4.148438 -7.265625 L 3.46875 -7.265625 L 3.46875 0 L 0.9375 0 L 0.9375 -17.226562 L 3.46875 -17.226562 C 6.492188 -17.226562 7.78125 -15.515625 7.78125 -12.257812 C 7.78125 -10.546875 7.335938 -9 6.375 -8.34375 L 7.992188 0 Z M 3.46875 -9.609375 C 3.820312 -9.609375 4.289062 -9.65625 4.664062 -9.984375 C 5.039062 -10.3125 5.34375 -10.945312 5.34375 -12.164062 C 5.34375 -13.382812 5.039062 -14.039062 4.664062 -14.367188 C 4.289062 -14.695312 3.820312 -14.71875 3.46875 -14.71875 Z M 3.46875 -9.609375 "/></g></g></g><g fill="rgb(1.959229%, 30.198669%, 23.139954%)" fill-opacity="1"><g transform="translate(189.298365, 38.474247)"><g><path d="M 5.53125 -17.226562 L 7.992188 -17.226562 L 5.367188 0 L 2.835938 0 L 0.210938 -17.226562 L 2.671875 -17.226562 L 3.9375 -7.757812 L 4.03125 -7.03125 L 4.171875 -7.03125 L 4.265625 -7.757812 Z M 5.53125 -17.226562 "/></g></g></g><g fill="rgb(1.959229%, 30.198669%, 23.139954%)" fill-opacity="1"><g transform="translate(200.617426, 38.474247)"><g><path d="M 0.9375 -17.226562 L 6.726562 -17.226562 L 6.726562 -14.625 L 3.46875 -14.625 L 3.46875 -10.101562 L 5.8125 -10.101562 L 5.8125 -7.335938 L 3.46875 -7.335938 L 3.46875 -2.601562 L 6.726562 -2.601562 L 6.726562 0 L 0.9375 0 Z M 0.9375 -17.226562 "/></g></g></g><g fill="rgb(1.959229%, 30.198669%, 23.139954%)" fill-opacity="1"><g transform="translate(210.928819, 38.474247)"><g><path d="M 5.132812 -12.609375 C 5.132812 -13.171875 5.109375 -13.804688 4.945312 -14.296875 C 4.78125 -14.765625 4.523438 -15.09375 4.125 -15.09375 C 3.46875 -15.070312 3.257812 -14.390625 3.257812 -13.382812 C 3.257812 -12.796875 3.515625 -12.1875 3.890625 -11.53125 C 4.265625 -10.875 4.757812 -10.195312 5.25 -9.46875 C 5.835938 -8.601562 6.421875 -7.710938 6.867188 -6.84375 C 7.3125 -5.976562 7.617188 -5.085938 7.617188 -4.148438 C 7.617188 -3 7.429688 -1.921875 6.890625 -1.125 C 6.351562 -0.328125 5.484375 0.1875 4.101562 0.1875 C 2.484375 0.1875 1.570312 -0.421875 1.054688 -1.359375 C 0.539062 -2.296875 0.421875 -3.539062 0.421875 -4.828125 L 2.90625 -5.0625 C 2.90625 -4.335938 2.929688 -3.609375 3.117188 -3.070312 C 3.28125 -2.507812 3.5625 -2.132812 4.101562 -2.132812 C 4.851562 -2.132812 5.132812 -2.929688 5.132812 -4.03125 C 5.132812 -4.59375 4.851562 -5.25 4.476562 -5.929688 C 4.265625 -6.257812 4.054688 -6.609375 3.820312 -6.960938 C 3.328125 -7.664062 2.789062 -8.460938 2.226562 -9.328125 C 1.664062 -10.195312 1.242188 -11.085938 0.984375 -12 C 0.84375 -12.445312 0.773438 -12.914062 0.773438 -13.382812 C 0.773438 -14.320312 0.984375 -15.328125 1.523438 -16.101562 C 2.0625 -16.851562 2.882812 -17.390625 4.078125 -17.414062 C 5.601562 -17.4375 6.492188 -16.804688 6.984375 -15.890625 C 7.476562 -14.953125 7.617188 -13.804688 7.617188 -12.84375 Z M 5.132812 -12.609375 "/></g></g></g><g fill="rgb(1.959229%, 30.198669%, 23.139954%)" fill-opacity="1"><g transform="translate(222.083838, 38.474247)"><g><path d="M 0.046875 -14.625 L 0.046875 -17.226562 L 7.359375 -17.226562 L 7.359375 -14.625 L 4.96875 -14.625 L 4.96875 0 L 2.4375 0 L 2.4375 -14.625 Z M 0.046875 -14.625 "/></g></g></g><g fill="rgb(56.079102%, 74.119568%, 30.979919%)" fill-opacity="1"><g transform="translate(95.199839, 49.691886)"><g><path d="M 1.105469 -4.148438 L 1.714844 -4.148438 C 1.980469 -4.148438 2.230469 -4.085938 2.394531 -3.890625 C 2.558594 -3.691406 2.628906 -3.382812 2.523438 -2.90625 C 2.414062 -2.433594 2.21875 -2.128906 1.976562 -1.929688 C 1.734375 -1.734375 1.449219 -1.660156 1.183594 -1.660156 L 0.835938 0 L 0.226562 0 Z M 1.316406 -2.28125 C 1.5 -2.28125 1.632812 -2.3125 1.714844 -2.410156 C 1.804688 -2.5 1.851562 -2.652344 1.902344 -2.882812 C 1.953125 -3.117188 1.96875 -3.273438 1.925781 -3.382812 C 1.878906 -3.476562 1.765625 -3.527344 1.582031 -3.527344 Z M 1.316406 -2.28125 "/></g></g></g><g fill="rgb(56.079102%, 74.119568%, 30.979919%)" fill-opacity="1"><g transform="translate(98.372033, 49.691886)"><g><path d="M 1.316406 0 L 1.367188 -1.75 L 1.203125 -1.75 L 0.835938 0 L 0.226562 0 L 1.105469 -4.148438 L 1.714844 -4.148438 C 2.445312 -4.148438 2.664062 -3.742188 2.5 -2.953125 C 2.410156 -2.539062 2.222656 -2.167969 1.957031 -2.007812 L 1.925781 0 Z M 1.328125 -2.3125 C 1.410156 -2.3125 1.523438 -2.320312 1.632812 -2.40625 C 1.738281 -2.488281 1.847656 -2.636719 1.90625 -2.929688 C 1.96875 -3.222656 1.929688 -3.375 1.855469 -3.460938 C 1.785156 -3.542969 1.671875 -3.542969 1.585938 -3.542969 Z M 1.328125 -2.3125 "/></g></g></g><g fill="rgb(56.079102%, 74.119568%, 30.979919%)" fill-opacity="1"><g transform="translate(101.595028, 49.691886)"><g><path d="M 1.992188 -0.851562 C 1.949219 -0.683594 1.878906 -0.53125 1.796875 -0.402344 C 1.710938 -0.289062 1.613281 -0.179688 1.484375 -0.0976562 C 1.347656 0 1.183594 0.046875 0.988281 0.046875 C 0.789062 0.046875 0.644531 0 0.542969 -0.0976562 C 0.445312 -0.179688 0.394531 -0.289062 0.371094 -0.402344 C 0.332031 -0.53125 0.332031 -0.675781 0.367188 -0.851562 L 0.886719 -3.296875 C 0.925781 -3.460938 0.988281 -3.605469 1.078125 -3.742188 C 1.164062 -3.855469 1.253906 -3.96875 1.382812 -4.050781 C 1.511719 -4.136719 1.683594 -4.195312 1.886719 -4.195312 C 2.089844 -4.195312 2.230469 -4.136719 2.324219 -4.050781 C 2.421875 -3.96875 2.476562 -3.855469 2.5 -3.742188 C 2.539062 -3.617188 2.539062 -3.472656 2.511719 -3.296875 Z M 1.902344 -3.296875 C 1.925781 -3.410156 1.914062 -3.492188 1.875 -3.554688 C 1.851562 -3.585938 1.8125 -3.601562 1.761719 -3.601562 C 1.652344 -3.601562 1.585938 -3.523438 1.546875 -3.449219 C 1.523438 -3.402344 1.507812 -3.351562 1.496094 -3.296875 L 0.976562 -0.851562 C 0.949219 -0.746094 0.960938 -0.65625 1.003906 -0.59375 C 1.027344 -0.5625 1.0625 -0.546875 1.113281 -0.546875 C 1.21875 -0.546875 1.285156 -0.617188 1.328125 -0.699219 C 1.34375 -0.734375 1.367188 -0.785156 1.382812 -0.851562 Z M 1.902344 -3.296875 "/></g></g></g><g fill="rgb(56.079102%, 74.119568%, 30.979919%)" fill-opacity="1"><g transform="translate(104.778512, 49.691886)"><g><path d="M 2.210938 -4.148438 L 2.804688 -4.148438 L 1.292969 0 L 0.683594 0 L 0.929688 -4.148438 L 1.523438 -4.148438 L 1.34375 -1.867188 L 1.328125 -1.691406 L 1.359375 -1.691406 L 1.421875 -1.867188 Z M 2.210938 -4.148438 "/></g></g></g><g fill="rgb(56.079102%, 74.119568%, 30.979919%)" fill-opacity="1"><g transform="translate(107.939416, 49.691886)"><g><path d="M 1.105469 -4.148438 L 1.714844 -4.148438 L 0.835938 0 L 0.226562 0 Z M 1.105469 -4.148438 "/></g></g></g><g fill="rgb(56.079102%, 74.119568%, 30.979919%)" fill-opacity="1"><g transform="translate(110.185913, 49.691886)"><g><path d="M 0.226562 0 L 1.105469 -4.148438 L 1.585938 -4.148438 C 2.152344 -4.148438 2.421875 -4.035156 2.527344 -3.71875 C 2.617188 -3.402344 2.535156 -2.890625 2.359375 -2.070312 C 2.183594 -1.257812 2.054688 -0.746094 1.828125 -0.429688 C 1.597656 -0.113281 1.269531 0 0.707031 0 Z M 0.960938 -0.609375 C 1.167969 -0.609375 1.292969 -0.632812 1.398438 -0.835938 C 1.496094 -1.023438 1.574219 -1.355469 1.632812 -1.625 C 1.660156 -1.753906 1.6875 -1.90625 1.726562 -2.078125 C 1.761719 -2.246094 1.796875 -2.398438 1.824219 -2.535156 C 1.878906 -2.800781 1.949219 -3.117188 1.925781 -3.320312 C 1.90625 -3.515625 1.796875 -3.539062 1.585938 -3.539062 Z M 0.960938 -0.609375 "/></g></g></g><g fill="rgb(56.079102%, 74.119568%, 30.979919%)" fill-opacity="1"><g transform="translate(113.470998, 49.691886)"><g><path d="M 1.105469 -4.148438 L 1.714844 -4.148438 L 0.835938 0 L 0.226562 0 Z M 1.105469 -4.148438 "/></g></g></g><g fill="rgb(56.079102%, 74.119568%, 30.979919%)" fill-opacity="1"><g transform="translate(115.717494, 49.691886)"><g><path d="M 1.328125 -2.160156 L 1.316406 -2.355469 L 1.28125 -2.355469 L 0.785156 0 L 0.226562 0 L 1.105469 -4.148438 L 1.648438 -4.148438 L 1.777344 -1.988281 L 1.789062 -1.796875 L 1.824219 -1.796875 L 2.324219 -4.148438 L 2.882812 -4.148438 L 2.003906 0 L 1.460938 0 Z M 1.328125 -2.160156 "/></g></g></g><g fill="rgb(56.079102%, 74.119568%, 30.979919%)" fill-opacity="1"><g transform="translate(119.132403, 49.691886)"><g><path d="M 1.765625 -2.660156 L 1.902344 -3.296875 C 1.925781 -3.410156 1.914062 -3.492188 1.875 -3.554688 C 1.851562 -3.585938 1.8125 -3.601562 1.761719 -3.601562 C 1.652344 -3.601562 1.585938 -3.523438 1.546875 -3.449219 C 1.523438 -3.402344 1.507812 -3.351562 1.496094 -3.296875 L 0.964844 -0.800781 C 0.9375 -0.695312 0.949219 -0.605469 0.992188 -0.542969 C 1.015625 -0.511719 1.050781 -0.496094 1.101562 -0.496094 C 1.207031 -0.496094 1.277344 -0.5625 1.316406 -0.648438 C 1.332031 -0.683594 1.355469 -0.734375 1.371094 -0.800781 L 1.53125 -1.550781 L 1.285156 -1.550781 L 1.394531 -2.066406 L 2.246094 -2.066406 L 1.8125 0 L 1.449219 0 L 1.417969 -0.199219 C 1.277344 -0.0546875 1.089844 0.046875 0.890625 0.046875 C 0.695312 0.046875 0.570312 -0.00390625 0.484375 -0.0976562 C 0.402344 -0.179688 0.355469 -0.289062 0.339844 -0.402344 C 0.308594 -0.53125 0.320312 -0.675781 0.367188 -0.851562 L 0.886719 -3.296875 C 0.925781 -3.460938 0.988281 -3.605469 1.078125 -3.742188 C 1.164062 -3.855469 1.253906 -3.96875 1.382812 -4.050781 C 1.511719 -4.136719 1.683594 -4.195312 1.886719 -4.195312 C 2.089844 -4.195312 2.230469 -4.136719 2.324219 -4.050781 C 2.421875 -3.96875 2.476562 -3.855469 2.5 -3.742188 C 2.539062 -3.617188 2.539062 -3.472656 2.511719 -3.296875 L 2.375 -2.660156 Z M 1.765625 -2.660156 "/></g></g></g><g fill="rgb(56.079102%, 74.119568%, 30.979919%)" fill-opacity="1"><g transform="translate(122.349757, 49.691886)"><g/></g></g><g fill="rgb(56.079102%, 74.119568%, 30.979919%)" fill-opacity="1"><g transform="translate(124.404339, 49.691886)"><g><path d="M 2.421875 -3.523438 L 1.582031 -3.523438 L 1.347656 -2.433594 L 1.914062 -2.433594 L 1.785156 -1.804688 L 1.21875 -1.804688 L 0.835938 0 L 0.226562 0 L 1.105469 -4.148438 L 2.558594 -4.148438 Z M 2.421875 -3.523438 "/></g></g></g><g fill="rgb(56.079102%, 74.119568%, 30.979919%)" fill-opacity="1"><g transform="translate(127.288667, 49.691886)"><g><path d="M 0.0546875 0 L 1.5625 -4.148438 L 2.308594 -4.148438 L 2.054688 0 L 1.460938 0 L 1.523438 -0.847656 L 0.9375 -0.847656 L 0.648438 0 Z M 1.683594 -2.800781 L 1.6875 -2.90625 L 1.652344 -2.90625 L 1.613281 -2.800781 L 1.164062 -1.488281 L 1.582031 -1.488281 Z M 1.683594 -2.800781 "/></g></g></g><g fill="rgb(56.079102%, 74.119568%, 30.979919%)" fill-opacity="1"><g transform="translate(130.585041, 49.691886)"><g><path d="M 1.316406 0 L 1.367188 -1.75 L 1.203125 -1.75 L 0.835938 0 L 0.226562 0 L 1.105469 -4.148438 L 1.714844 -4.148438 C 2.445312 -4.148438 2.664062 -3.742188 2.5 -2.953125 C 2.410156 -2.539062 2.222656 -2.167969 1.957031 -2.007812 L 1.925781 0 Z M 1.328125 -2.3125 C 1.410156 -2.3125 1.523438 -2.320312 1.632812 -2.40625 C 1.738281 -2.488281 1.847656 -2.636719 1.90625 -2.929688 C 1.96875 -3.222656 1.929688 -3.375 1.855469 -3.460938 C 1.785156 -3.542969 1.671875 -3.542969 1.585938 -3.542969 Z M 1.328125 -2.3125 "/></g></g></g><g fill="rgb(56.079102%, 74.119568%, 30.979919%)" fill-opacity="1"><g transform="translate(133.808034, 49.691886)"><g><path d="M 1.234375 0 L 1.398438 -2.609375 L 1.410156 -2.78125 L 1.378906 -2.78125 L 0.789062 0 L 0.226562 0 L 1.105469 -4.148438 L 1.851562 -4.148438 L 1.804688 -2.253906 L 1.789062 -2.03125 L 1.800781 -2.03125 L 1.875 -2.253906 L 2.640625 -4.148438 L 3.386719 -4.148438 L 2.507812 0 L 1.941406 0 L 2.527344 -2.78125 L 2.496094 -2.78125 L 2.4375 -2.609375 L 1.496094 0 Z M 1.234375 0 "/></g></g></g><g fill="rgb(56.079102%, 74.119568%, 30.979919%)" fill-opacity="1"><g transform="translate(137.725305, 49.691886)"><g/></g></g><g fill="rgb(56.079102%, 74.119568%, 30.979919%)" fill-opacity="1"><g transform="translate(139.779886, 49.691886)"><g><path d="M 2.421875 -3.523438 L 1.582031 -3.523438 L 1.347656 -2.433594 L 1.914062 -2.433594 L 1.785156 -1.804688 L 1.21875 -1.804688 L 0.835938 0 L 0.226562 0 L 1.105469 -4.148438 L 2.558594 -4.148438 Z M 2.421875 -3.523438 "/></g></g></g><g fill="rgb(56.079102%, 74.119568%, 30.979919%)" fill-opacity="1"><g transform="translate(142.664212, 49.691886)"><g><path d="M 1.316406 0 L 1.367188 -1.75 L 1.203125 -1.75 L 0.835938 0 L 0.226562 0 L 1.105469 -4.148438 L 1.714844 -4.148438 C 2.445312 -4.148438 2.664062 -3.742188 2.5 -2.953125 C 2.410156 -2.539062 2.222656 -2.167969 1.957031 -2.007812 L 1.925781 0 Z M 1.328125 -2.3125 C 1.410156 -2.3125 1.523438 -2.320312 1.632812 -2.40625 C 1.738281 -2.488281 1.847656 -2.636719 1.90625 -2.929688 C 1.96875 -3.222656 1.929688 -3.375 1.855469 -3.460938 C 1.785156 -3.542969 1.671875 -3.542969 1.585938 -3.542969 Z M 1.328125 -2.3125 "/></g></g></g><g fill="rgb(56.079102%, 74.119568%, 30.979919%)" fill-opacity="1"><g transform="translate(145.887205, 49.691886)"><g><path d="M 1.105469 -4.148438 L 2.5 -4.148438 L 2.363281 -3.523438 L 1.582031 -3.523438 L 1.347656 -2.433594 L 1.914062 -2.433594 L 1.773438 -1.765625 L 1.207031 -1.765625 L 0.964844 -0.625 L 1.75 -0.625 L 1.621094 0 L 0.226562 0 Z M 1.105469 -4.148438 "/></g></g></g><g fill="rgb(56.079102%, 74.119568%, 30.979919%)" fill-opacity="1"><g transform="translate(148.805394, 49.691886)"><g><path d="M 1.878906 -3.035156 C 1.90625 -3.171875 1.9375 -3.324219 1.917969 -3.441406 C 1.902344 -3.554688 1.855469 -3.636719 1.761719 -3.636719 C 1.601562 -3.628906 1.519531 -3.464844 1.46875 -3.222656 C 1.4375 -3.082031 1.460938 -2.933594 1.523438 -2.777344 C 1.585938 -2.617188 1.660156 -2.457031 1.742188 -2.28125 C 1.851562 -2.070312 1.9375 -1.855469 2.003906 -1.648438 C 2.066406 -1.4375 2.09375 -1.226562 2.042969 -1 C 1.980469 -0.722656 1.890625 -0.46875 1.714844 -0.269531 C 1.539062 -0.0742188 1.316406 0.046875 0.976562 0.046875 C 0.585938 0.046875 0.394531 -0.101562 0.320312 -0.328125 C 0.238281 -0.554688 0.28125 -0.847656 0.34375 -1.164062 L 0.953125 -1.21875 C 0.914062 -1.042969 0.886719 -0.871094 0.902344 -0.738281 C 0.921875 -0.605469 0.964844 -0.511719 1.09375 -0.511719 C 1.277344 -0.511719 1.378906 -0.707031 1.4375 -0.972656 C 1.46875 -1.105469 1.4375 -1.265625 1.378906 -1.429688 C 1.359375 -1.46875 1.34375 -1.511719 1.328125 -1.550781 C 1.308594 -1.589844 1.292969 -1.636719 1.277344 -1.675781 C 1.234375 -1.761719 1.191406 -1.851562 1.144531 -1.949219 C 1.101562 -2.042969 1.054688 -2.140625 1.011719 -2.246094 C 0.914062 -2.460938 0.863281 -2.675781 0.847656 -2.890625 C 0.828125 -2.996094 0.847656 -3.109375 0.871094 -3.222656 C 0.914062 -3.449219 1.015625 -3.691406 1.191406 -3.878906 C 1.355469 -4.058594 1.582031 -4.1875 1.867188 -4.195312 C 2.246094 -4.199219 2.421875 -4.046875 2.496094 -3.828125 C 2.5625 -3.601562 2.539062 -3.324219 2.488281 -3.09375 Z M 1.878906 -3.035156 "/></g></g></g><g fill="rgb(56.079102%, 74.119568%, 30.979919%)" fill-opacity="1"><g transform="translate(151.926785, 49.691886)"><g><path d="M 1.691406 -1.804688 L 1.21875 -1.804688 L 0.835938 0 L 0.226562 0 L 1.105469 -4.148438 L 1.714844 -4.148438 L 1.347656 -2.433594 L 1.824219 -2.433594 L 2.191406 -4.148438 L 2.800781 -4.148438 L 1.917969 0 L 1.308594 0 Z M 1.691406 -1.804688 "/></g></g></g><g fill="rgb(56.079102%, 74.119568%, 30.979919%)" fill-opacity="1"><g transform="translate(155.257022, 49.691886)"><g/></g></g><g fill="rgb(56.079102%, 74.119568%, 30.979919%)" fill-opacity="1"><g transform="translate(157.311606, 49.691886)"><g><path d="M 1.105469 -4.148438 L 1.714844 -4.148438 C 1.980469 -4.148438 2.230469 -4.085938 2.394531 -3.890625 C 2.558594 -3.691406 2.628906 -3.382812 2.523438 -2.90625 C 2.414062 -2.433594 2.21875 -2.128906 1.976562 -1.929688 C 1.734375 -1.734375 1.449219 -1.660156 1.183594 -1.660156 L 0.835938 0 L 0.226562 0 Z M 1.316406 -2.28125 C 1.5 -2.28125 1.632812 -2.3125 1.714844 -2.410156 C 1.804688 -2.5 1.851562 -2.652344 1.902344 -2.882812 C 1.953125 -3.117188 1.96875 -3.273438 1.925781 -3.382812 C 1.878906 -3.476562 1.765625 -3.527344 1.582031 -3.527344 Z M 1.316406 -2.28125 "/></g></g></g><g fill="rgb(56.079102%, 74.119568%, 30.979919%)" fill-opacity="1"><g transform="translate(160.483802, 49.691886)"><g><path d="M 1.316406 0 L 1.367188 -1.75 L 1.203125 -1.75 L 0.835938 0 L 0.226562 0 L 1.105469 -4.148438 L 1.714844 -4.148438 C 2.445312 -4.148438 2.664062 -3.742188 2.5 -2.953125 C 2.410156 -2.539062 2.222656 -2.167969 1.957031 -2.007812 L 1.925781 0 Z M 1.328125 -2.3125 C 1.410156 -2.3125 1.523438 -2.320312 1.632812 -2.40625 C 1.738281 -2.488281 1.847656 -2.636719 1.90625 -2.929688 C 1.96875 -3.222656 1.929688 -3.375 1.855469 -3.460938 C 1.785156 -3.542969 1.671875 -3.542969 1.585938 -3.542969 Z M 1.328125 -2.3125 "/></g></g></g><g fill="rgb(56.079102%, 74.119568%, 30.979919%)" fill-opacity="1"><g transform="translate(163.706799, 49.691886)"><g><path d="M 1.992188 -0.851562 C 1.949219 -0.683594 1.878906 -0.53125 1.796875 -0.402344 C 1.710938 -0.289062 1.613281 -0.179688 1.484375 -0.0976562 C 1.347656 0 1.183594 0.046875 0.988281 0.046875 C 0.789062 0.046875 0.644531 0 0.542969 -0.0976562 C 0.445312 -0.179688 0.394531 -0.289062 0.371094 -0.402344 C 0.332031 -0.53125 0.332031 -0.675781 0.367188 -0.851562 L 0.886719 -3.296875 C 0.925781 -3.460938 0.988281 -3.605469 1.078125 -3.742188 C 1.164062 -3.855469 1.253906 -3.96875 1.382812 -4.050781 C 1.511719 -4.136719 1.683594 -4.195312 1.886719 -4.195312 C 2.089844 -4.195312 2.230469 -4.136719 2.324219 -4.050781 C 2.421875 -3.96875 2.476562 -3.855469 2.5 -3.742188 C 2.539062 -3.617188 2.539062 -3.472656 2.511719 -3.296875 Z M 1.902344 -3.296875 C 1.925781 -3.410156 1.914062 -3.492188 1.875 -3.554688 C 1.851562 -3.585938 1.8125 -3.601562 1.761719 -3.601562 C 1.652344 -3.601562 1.585938 -3.523438 1.546875 -3.449219 C 1.523438 -3.402344 1.507812 -3.351562 1.496094 -3.296875 L 0.976562 -0.851562 C 0.949219 -0.746094 0.960938 -0.65625 1.003906 -0.59375 C 1.027344 -0.5625 1.0625 -0.546875 1.113281 -0.546875 C 1.21875 -0.546875 1.285156 -0.617188 1.328125 -0.699219 C 1.34375 -0.734375 1.367188 -0.785156 1.382812 -0.851562 Z M 1.902344 -3.296875 "/></g></g></g><g fill="rgb(56.079102%, 74.119568%, 30.979919%)" fill-opacity="1"><g transform="translate(166.890285, 49.691886)"><g><path d="M 0.226562 0 L 1.105469 -4.148438 L 1.585938 -4.148438 C 2.152344 -4.148438 2.421875 -4.035156 2.527344 -3.71875 C 2.617188 -3.402344 2.535156 -2.890625 2.359375 -2.070312 C 2.183594 -1.257812 2.054688 -0.746094 1.828125 -0.429688 C 1.597656 -0.113281 1.269531 0 0.707031 0 Z M 0.960938 -0.609375 C 1.167969 -0.609375 1.292969 -0.632812 1.398438 -0.835938 C 1.496094 -1.023438 1.574219 -1.355469 1.632812 -1.625 C 1.660156 -1.753906 1.6875 -1.90625 1.726562 -2.078125 C 1.761719 -2.246094 1.796875 -2.398438 1.824219 -2.535156 C 1.878906 -2.800781 1.949219 -3.117188 1.925781 -3.320312 C 1.90625 -3.515625 1.796875 -3.539062 1.585938 -3.539062 Z M 0.960938 -0.609375 "/></g></g></g><g fill="rgb(56.079102%, 74.119568%, 30.979919%)" fill-opacity="1"><g transform="translate(170.175373, 49.691886)"><g><path d="M 2.726562 -4.148438 L 2.027344 -0.851562 C 1.980469 -0.683594 1.914062 -0.53125 1.828125 -0.402344 C 1.742188 -0.289062 1.648438 -0.179688 1.519531 -0.0976562 C 1.382812 0 1.21875 0.046875 1.023438 0.046875 C 0.824219 0.046875 0.675781 0 0.574219 -0.0976562 C 0.480469 -0.179688 0.429688 -0.289062 0.40625 -0.402344 C 0.367188 -0.53125 0.367188 -0.675781 0.402344 -0.851562 L 1.101562 -4.148438 L 1.710938 -4.148438 L 1.011719 -0.851562 C 0.980469 -0.746094 0.992188 -0.65625 1.039062 -0.59375 C 1.0625 -0.5625 1.09375 -0.546875 1.144531 -0.546875 C 1.253906 -0.546875 1.320312 -0.617188 1.359375 -0.699219 C 1.378906 -0.734375 1.398438 -0.785156 1.417969 -0.851562 L 2.117188 -4.148438 Z M 2.726562 -4.148438 "/></g></g></g><g fill="rgb(56.079102%, 74.119568%, 30.979919%)" fill-opacity="1"><g transform="translate(173.426591, 49.691886)"><g><path d="M 2.109375 -1.421875 L 1.992188 -0.851562 C 1.949219 -0.683594 1.878906 -0.53125 1.796875 -0.402344 C 1.710938 -0.289062 1.613281 -0.179688 1.484375 -0.0976562 C 1.347656 0 1.183594 0.046875 0.988281 0.046875 C 0.789062 0.046875 0.644531 0 0.542969 -0.0976562 C 0.445312 -0.179688 0.394531 -0.289062 0.371094 -0.402344 C 0.332031 -0.53125 0.332031 -0.675781 0.367188 -0.851562 L 0.886719 -3.296875 C 0.925781 -3.460938 0.988281 -3.605469 1.078125 -3.742188 C 1.164062 -3.855469 1.253906 -3.96875 1.382812 -4.050781 C 1.511719 -4.136719 1.683594 -4.195312 1.886719 -4.195312 C 2.089844 -4.195312 2.230469 -4.136719 2.324219 -4.050781 C 2.421875 -3.96875 2.476562 -3.855469 2.5 -3.742188 C 2.539062 -3.617188 2.539062 -3.472656 2.511719 -3.296875 L 2.386719 -2.726562 L 1.816406 -2.726562 L 1.941406 -3.296875 C 1.964844 -3.402344 1.953125 -3.492188 1.902344 -3.554688 C 1.878906 -3.585938 1.835938 -3.601562 1.773438 -3.601562 C 1.664062 -3.601562 1.597656 -3.523438 1.550781 -3.449219 C 1.535156 -3.410156 1.511719 -3.359375 1.496094 -3.296875 L 0.976562 -0.851562 C 0.960938 -0.746094 0.972656 -0.65625 1.015625 -0.59375 C 1.039062 -0.5625 1.074219 -0.546875 1.125 -0.546875 C 1.253906 -0.546875 1.320312 -0.617188 1.367188 -0.699219 C 1.382812 -0.734375 1.40625 -0.785156 1.421875 -0.851562 L 1.539062 -1.421875 Z M 2.109375 -1.421875 "/></g></g></g><g fill="rgb(56.079102%, 74.119568%, 30.979919%)" fill-opacity="1"><g transform="translate(176.564918, 49.691886)"><g><path d="M 0.757812 -3.523438 L 0.890625 -4.148438 L 2.652344 -4.148438 L 2.515625 -3.523438 L 1.941406 -3.523438 L 1.195312 0 L 0.585938 0 L 1.332031 -3.523438 Z M 0.757812 -3.523438 "/></g></g></g><g fill="rgb(56.079102%, 74.119568%, 30.979919%)" fill-opacity="1"><g transform="translate(179.53391, 49.691886)"><g><path d="M 1.878906 -3.035156 C 1.90625 -3.171875 1.9375 -3.324219 1.917969 -3.441406 C 1.902344 -3.554688 1.855469 -3.636719 1.761719 -3.636719 C 1.601562 -3.628906 1.519531 -3.464844 1.46875 -3.222656 C 1.4375 -3.082031 1.460938 -2.933594 1.523438 -2.777344 C 1.585938 -2.617188 1.660156 -2.457031 1.742188 -2.28125 C 1.851562 -2.070312 1.9375 -1.855469 2.003906 -1.648438 C 2.066406 -1.4375 2.09375 -1.226562 2.042969 -1 C 1.980469 -0.722656 1.890625 -0.46875 1.714844 -0.269531 C 1.539062 -0.0742188 1.316406 0.046875 0.976562 0.046875 C 0.585938 0.046875 0.394531 -0.101562 0.320312 -0.328125 C 0.238281 -0.554688 0.28125 -0.847656 0.34375 -1.164062 L 0.953125 -1.21875 C 0.914062 -1.042969 0.886719 -0.871094 0.902344 -0.738281 C 0.921875 -0.605469 0.964844 -0.511719 1.09375 -0.511719 C 1.277344 -0.511719 1.378906 -0.707031 1.4375 -0.972656 C 1.46875 -1.105469 1.4375 -1.265625 1.378906 -1.429688 C 1.359375 -1.46875 1.34375 -1.511719 1.328125 -1.550781 C 1.308594 -1.589844 1.292969 -1.636719 1.277344 -1.675781 C 1.234375 -1.761719 1.191406 -1.851562 1.144531 -1.949219 C 1.101562 -2.042969 1.054688 -2.140625 1.011719 -2.246094 C 0.914062 -2.460938 0.863281 -2.675781 0.847656 -2.890625 C 0.828125 -2.996094 0.847656 -3.109375 0.871094 -3.222656 C 0.914062 -3.449219 1.015625 -3.691406 1.191406 -3.878906 C 1.355469 -4.058594 1.582031 -4.1875 1.867188 -4.195312 C 2.246094 -4.199219 2.421875 -4.046875 2.496094 -3.828125 C 2.5625 -3.601562 2.539062 -3.324219 2.488281 -3.09375 Z M 1.878906 -3.035156 "/></g></g></g><g fill="rgb(56.079102%, 74.119568%, 30.979919%)" fill-opacity="1"><g transform="translate(182.655306, 49.691886)"><g/></g></g><g fill="rgb(56.079102%, 74.119568%, 30.979919%)" fill-opacity="1"><g transform="translate(184.70257, 49.691886)"><g><path d="M 0.226562 0 L 1.105469 -4.148438 L 1.585938 -4.148438 C 2.152344 -4.148438 2.421875 -4.035156 2.527344 -3.71875 C 2.617188 -3.402344 2.535156 -2.890625 2.359375 -2.070312 C 2.183594 -1.257812 2.054688 -0.746094 1.828125 -0.429688 C 1.597656 -0.113281 1.269531 0 0.707031 0 Z M 0.960938 -0.609375 C 1.167969 -0.609375 1.292969 -0.632812 1.398438 -0.835938 C 1.496094 -1.023438 1.574219 -1.355469 1.632812 -1.625 C 1.660156 -1.753906 1.6875 -1.90625 1.726562 -2.078125 C 1.761719 -2.246094 1.796875 -2.398438 1.824219 -2.535156 C 1.878906 -2.800781 1.949219 -3.117188 1.925781 -3.320312 C 1.90625 -3.515625 1.796875 -3.539062 1.585938 -3.539062 Z M 0.960938 -0.609375 "/></g></g></g><g fill="rgb(56.079102%, 74.119568%, 30.979919%)" fill-opacity="1"><g transform="translate(187.987655, 49.691886)"><g><path d="M 1.105469 -4.148438 L 1.714844 -4.148438 L 0.835938 0 L 0.226562 0 Z M 1.105469 -4.148438 "/></g></g></g><g fill="rgb(56.079102%, 74.119568%, 30.979919%)" fill-opacity="1"><g transform="translate(190.234151, 49.691886)"><g><path d="M 1.316406 0 L 1.367188 -1.75 L 1.203125 -1.75 L 0.835938 0 L 0.226562 0 L 1.105469 -4.148438 L 1.714844 -4.148438 C 2.445312 -4.148438 2.664062 -3.742188 2.5 -2.953125 C 2.410156 -2.539062 2.222656 -2.167969 1.957031 -2.007812 L 1.925781 0 Z M 1.328125 -2.3125 C 1.410156 -2.3125 1.523438 -2.320312 1.632812 -2.40625 C 1.738281 -2.488281 1.847656 -2.636719 1.90625 -2.929688 C 1.96875 -3.222656 1.929688 -3.375 1.855469 -3.460938 C 1.785156 -3.542969 1.671875 -3.542969 1.585938 -3.542969 Z M 1.328125 -2.3125 "/></g></g></g><g fill="rgb(56.079102%, 74.119568%, 30.979919%)" fill-opacity="1"><g transform="translate(193.457146, 49.691886)"><g><path d="M 1.105469 -4.148438 L 2.5 -4.148438 L 2.363281 -3.523438 L 1.582031 -3.523438 L 1.347656 -2.433594 L 1.914062 -2.433594 L 1.773438 -1.765625 L 1.207031 -1.765625 L 0.964844 -0.625 L 1.75 -0.625 L 1.621094 0 L 0.226562 0 Z M 1.105469 -4.148438 "/></g></g></g><g fill="rgb(56.079102%, 74.119568%, 30.979919%)" fill-opacity="1"><g transform="translate(196.375336, 49.691886)"><g><path d="M 2.109375 -1.421875 L 1.992188 -0.851562 C 1.949219 -0.683594 1.878906 -0.53125 1.796875 -0.402344 C 1.710938 -0.289062 1.613281 -0.179688 1.484375 -0.0976562 C 1.347656 0 1.183594 0.046875 0.988281 0.046875 C 0.789062 0.046875 0.644531 0 0.542969 -0.0976562 C 0.445312 -0.179688 0.394531 -0.289062 0.371094 -0.402344 C 0.332031 -0.53125 0.332031 -0.675781 0.367188 -0.851562 L 0.886719 -3.296875 C 0.925781 -3.460938 0.988281 -3.605469 1.078125 -3.742188 C 1.164062 -3.855469 1.253906 -3.96875 1.382812 -4.050781 C 1.511719 -4.136719 1.683594 -4.195312 1.886719 -4.195312 C 2.089844 -4.195312 2.230469 -4.136719 2.324219 -4.050781 C 2.421875 -3.96875 2.476562 -3.855469 2.5 -3.742188 C 2.539062 -3.617188 2.539062 -3.472656 2.511719 -3.296875 L 2.386719 -2.726562 L 1.816406 -2.726562 L 1.941406 -3.296875 C 1.964844 -3.402344 1.953125 -3.492188 1.902344 -3.554688 C 1.878906 -3.585938 1.835938 -3.601562 1.773438 -3.601562 C 1.664062 -3.601562 1.597656 -3.523438 1.550781 -3.449219 C 1.535156 -3.410156 1.511719 -3.359375 1.496094 -3.296875 L 0.976562 -0.851562 C 0.960938 -0.746094 0.972656 -0.65625 1.015625 -0.59375 C 1.039062 -0.5625 1.074219 -0.546875 1.125 -0.546875 C 1.253906 -0.546875 1.320312 -0.617188 1.367188 -0.699219 C 1.382812 -0.734375 1.40625 -0.785156 1.421875 -0.851562 L 1.539062 -1.421875 Z M 2.109375 -1.421875 "/></g></g></g><g fill="rgb(56.079102%, 74.119568%, 30.979919%)" fill-opacity="1"><g transform="translate(199.513661, 49.691886)"><g><path d="M 0.757812 -3.523438 L 0.890625 -4.148438 L 2.652344 -4.148438 L 2.515625 -3.523438 L 1.941406 -3.523438 L 1.195312 0 L 0.585938 0 L 1.332031 -3.523438 Z M 0.757812 -3.523438 "/></g></g></g><g fill="rgb(56.079102%, 74.119568%, 30.979919%)" fill-opacity="1"><g transform="translate(202.482651, 49.691886)"><g><path d="M 1.105469 -4.148438 L 1.714844 -4.148438 L 0.953125 -0.5625 L 1.761719 -0.5625 L 1.640625 0 L 0.226562 0 Z M 1.105469 -4.148438 "/></g></g></g><g fill="rgb(56.079102%, 74.119568%, 30.979919%)" fill-opacity="1"><g transform="translate(205.333109, 49.691886)"><g><path d="M 1.539062 -2.820312 L 1.546875 -2.78125 L 1.558594 -2.78125 L 1.585938 -2.820312 L 2.171875 -4.148438 L 2.769531 -4.148438 L 1.640625 -1.765625 L 1.269531 0 L 0.660156 0 L 1.03125 -1.765625 L 0.921875 -4.148438 L 1.519531 -4.148438 Z M 1.539062 -2.820312 "/></g></g></g><g fill="rgb(56.079102%, 74.119568%, 30.979919%)" fill-opacity="1"><g transform="translate(208.448861, 49.691886)"><g/></g></g><g fill="rgb(56.079102%, 74.119568%, 30.979919%)" fill-opacity="1"><g transform="translate(210.503444, 49.691886)"><g><path d="M 0.757812 -3.523438 L 0.890625 -4.148438 L 2.652344 -4.148438 L 2.515625 -3.523438 L 1.941406 -3.523438 L 1.195312 0 L 0.585938 0 L 1.332031 -3.523438 Z M 0.757812 -3.523438 "/></g></g></g><g fill="rgb(56.079102%, 74.119568%, 30.979919%)" fill-opacity="1"><g transform="translate(213.472435, 49.691886)"><g><path d="M 1.992188 -0.851562 C 1.949219 -0.683594 1.878906 -0.53125 1.796875 -0.402344 C 1.710938 -0.289062 1.613281 -0.179688 1.484375 -0.0976562 C 1.347656 0 1.183594 0.046875 0.988281 0.046875 C 0.789062 0.046875 0.644531 0 0.542969 -0.0976562 C 0.445312 -0.179688 0.394531 -0.289062 0.371094 -0.402344 C 0.332031 -0.53125 0.332031 -0.675781 0.367188 -0.851562 L 0.886719 -3.296875 C 0.925781 -3.460938 0.988281 -3.605469 1.078125 -3.742188 C 1.164062 -3.855469 1.253906 -3.96875 1.382812 -4.050781 C 1.511719 -4.136719 1.683594 -4.195312 1.886719 -4.195312 C 2.089844 -4.195312 2.230469 -4.136719 2.324219 -4.050781 C 2.421875 -3.96875 2.476562 -3.855469 2.5 -3.742188 C 2.539062 -3.617188 2.539062 -3.472656 2.511719 -3.296875 Z M 1.902344 -3.296875 C 1.925781 -3.410156 1.914062 -3.492188 1.875 -3.554688 C 1.851562 -3.585938 1.8125 -3.601562 1.761719 -3.601562 C 1.652344 -3.601562 1.585938 -3.523438 1.546875 -3.449219 C 1.523438 -3.402344 1.507812 -3.351562 1.496094 -3.296875 L 0.976562 -0.851562 C 0.949219 -0.746094 0.960938 -0.65625 1.003906 -0.59375 C 1.027344 -0.5625 1.0625 -0.546875 1.113281 -0.546875 C 1.21875 -0.546875 1.285156 -0.617188 1.328125 -0.699219 C 1.34375 -0.734375 1.367188 -0.785156 1.382812 -0.851562 Z M 1.902344 -3.296875 "/></g></g></g><g fill="rgb(56.079102%, 74.119568%, 30.979919%)" fill-opacity="1"><g transform="translate(216.655919, 49.691886)"><g/></g></g><g fill="rgb(56.079102%, 74.119568%, 30.979919%)" fill-opacity="1"><g transform="translate(218.710501, 49.691886)"><g><path d="M 2.109375 -1.421875 L 1.992188 -0.851562 C 1.949219 -0.683594 1.878906 -0.53125 1.796875 -0.402344 C 1.710938 -0.289062 1.613281 -0.179688 1.484375 -0.0976562 C 1.347656 0 1.183594 0.046875 0.988281 0.046875 C 0.789062 0.046875 0.644531 0 0.542969 -0.0976562 C 0.445312 -0.179688 0.394531 -0.289062 0.371094 -0.402344 C 0.332031 -0.53125 0.332031 -0.675781 0.367188 -0.851562 L 0.886719 -3.296875 C 0.925781 -3.460938 0.988281 -3.605469 1.078125 -3.742188 C 1.164062 -3.855469 1.253906 -3.96875 1.382812 -4.050781 C 1.511719 -4.136719 1.683594 -4.195312 1.886719 -4.195312 C 2.089844 -4.195312 2.230469 -4.136719 2.324219 -4.050781 C 2.421875 -3.96875 2.476562 -3.855469 2.5 -3.742188 C 2.539062 -3.617188 2.539062 -3.472656 2.511719 -3.296875 L 2.386719 -2.726562 L 1.816406 -2.726562 L 1.941406 -3.296875 C 1.964844 -3.402344 1.953125 -3.492188 1.902344 -3.554688 C 1.878906 -3.585938 1.835938 -3.601562 1.773438 -3.601562 C 1.664062 -3.601562 1.597656 -3.523438 1.550781 -3.449219 C 1.535156 -3.410156 1.511719 -3.359375 1.496094 -3.296875 L 0.976562 -0.851562 C 0.960938 -0.746094 0.972656 -0.65625 1.015625 -0.59375 C 1.039062 -0.5625 1.074219 -0.546875 1.125 -0.546875 C 1.253906 -0.546875 1.320312 -0.617188 1.367188 -0.699219 C 1.382812 -0.734375 1.40625 -0.785156 1.421875 -0.851562 L 1.539062 -1.421875 Z M 2.109375 -1.421875 "/></g></g></g><g fill="rgb(56.079102%, 74.119568%, 30.979919%)" fill-opacity="1"><g transform="translate(221.848823, 49.691886)"><g><path d="M 1.992188 -0.851562 C 1.949219 -0.683594 1.878906 -0.53125 1.796875 -0.402344 C 1.710938 -0.289062 1.613281 -0.179688 1.484375 -0.0976562 C 1.347656 0 1.183594 0.046875 0.988281 0.046875 C 0.789062 0.046875 0.644531 0 0.542969 -0.0976562 C 0.445312 -0.179688 0.394531 -0.289062 0.371094 -0.402344 C 0.332031 -0.53125 0.332031 -0.675781 0.367188 -0.851562 L 0.886719 -3.296875 C 0.925781 -3.460938 0.988281 -3.605469 1.078125 -3.742188 C 1.164062 -3.855469 1.253906 -3.96875 1.382812 -4.050781 C 1.511719 -4.136719 1.683594 -4.195312 1.886719 -4.195312 C 2.089844 -4.195312 2.230469 -4.136719 2.324219 -4.050781 C 2.421875 -3.96875 2.476562 -3.855469 2.5 -3.742188 C 2.539062 -3.617188 2.539062 -3.472656 2.511719 -3.296875 Z M 1.902344 -3.296875 C 1.925781 -3.410156 1.914062 -3.492188 1.875 -3.554688 C 1.851562 -3.585938 1.8125 -3.601562 1.761719 -3.601562 C 1.652344 -3.601562 1.585938 -3.523438 1.546875 -3.449219 C 1.523438 -3.402344 1.507812 -3.351562 1.496094 -3.296875 L 0.976562 -0.851562 C 0.949219 -0.746094 0.960938 -0.65625 1.003906 -0.59375 C 1.027344 -0.5625 1.0625 -0.546875 1.113281 -0.546875 C 1.21875 -0.546875 1.285156 -0.617188 1.328125 -0.699219 C 1.34375 -0.734375 1.367188 -0.785156 1.382812 -0.851562 Z M 1.902344 -3.296875 "/></g></g></g><g fill="rgb(56.079102%, 74.119568%, 30.979919%)" fill-opacity="1"><g transform="translate(225.032306, 49.691886)"><g><path d="M 1.328125 -2.160156 L 1.316406 -2.355469 L 1.28125 -2.355469 L 0.785156 0 L 0.226562 0 L 1.105469 -4.148438 L 1.648438 -4.148438 L 1.777344 -1.988281 L 1.789062 -1.796875 L 1.824219 -1.796875 L 2.324219 -4.148438 L 2.882812 -4.148438 L 2.003906 0 L 1.460938 0 Z M 1.328125 -2.160156 "/></g></g></g><g fill="rgb(56.079102%, 74.119568%, 30.979919%)" fill-opacity="1"><g transform="translate(228.447213, 49.691886)"><g><path d="M 1.878906 -3.035156 C 1.90625 -3.171875 1.9375 -3.324219 1.917969 -3.441406 C 1.902344 -3.554688 1.855469 -3.636719 1.761719 -3.636719 C 1.601562 -3.628906 1.519531 -3.464844 1.46875 -3.222656 C 1.4375 -3.082031 1.460938 -2.933594 1.523438 -2.777344 C 1.585938 -2.617188 1.660156 -2.457031 1.742188 -2.28125 C 1.851562 -2.070312 1.9375 -1.855469 2.003906 -1.648438 C 2.066406 -1.4375 2.09375 -1.226562 2.042969 -1 C 1.980469 -0.722656 1.890625 -0.46875 1.714844 -0.269531 C 1.539062 -0.0742188 1.316406 0.046875 0.976562 0.046875 C 0.585938 0.046875 0.394531 -0.101562 0.320312 -0.328125 C 0.238281 -0.554688 0.28125 -0.847656 0.34375 -1.164062 L 0.953125 -1.21875 C 0.914062 -1.042969 0.886719 -0.871094 0.902344 -0.738281 C 0.921875 -0.605469 0.964844 -0.511719 1.09375 -0.511719 C 1.277344 -0.511719 1.378906 -0.707031 1.4375 -0.972656 C 1.46875 -1.105469 1.4375 -1.265625 1.378906 -1.429688 C 1.359375 -1.46875 1.34375 -1.511719 1.328125 -1.550781 C 1.308594 -1.589844 1.292969 -1.636719 1.277344 -1.675781 C 1.234375 -1.761719 1.191406 -1.851562 1.144531 -1.949219 C 1.101562 -2.042969 1.054688 -2.140625 1.011719 -2.246094 C 0.914062 -2.460938 0.863281 -2.675781 0.847656 -2.890625 C 0.828125 -2.996094 0.847656 -3.109375 0.871094 -3.222656 C 0.914062 -3.449219 1.015625 -3.691406 1.191406 -3.878906 C 1.355469 -4.058594 1.582031 -4.1875 1.867188 -4.195312 C 2.246094 -4.199219 2.421875 -4.046875 2.496094 -3.828125 C 2.5625 -3.601562 2.539062 -3.324219 2.488281 -3.09375 Z M 1.878906 -3.035156 "/></g></g></g><g fill="rgb(56.079102%, 74.119568%, 30.979919%)" fill-opacity="1"><g transform="translate(231.568604, 49.691886)"><g><path d="M 2.726562 -4.148438 L 2.027344 -0.851562 C 1.980469 -0.683594 1.914062 -0.53125 1.828125 -0.402344 C 1.742188 -0.289062 1.648438 -0.179688 1.519531 -0.0976562 C 1.382812 0 1.21875 0.046875 1.023438 0.046875 C 0.824219 0.046875 0.675781 0 0.574219 -0.0976562 C 0.480469 -0.179688 0.429688 -0.289062 0.40625 -0.402344 C 0.367188 -0.53125 0.367188 -0.675781 0.402344 -0.851562 L 1.101562 -4.148438 L 1.710938 -4.148438 L 1.011719 -0.851562 C 0.980469 -0.746094 0.992188 -0.65625 1.039062 -0.59375 C 1.0625 -0.5625 1.09375 -0.546875 1.144531 -0.546875 C 1.253906 -0.546875 1.320312 -0.617188 1.359375 -0.699219 C 1.378906 -0.734375 1.398438 -0.785156 1.417969 -0.851562 L 2.117188 -4.148438 Z M 2.726562 -4.148438 "/></g></g></g><g fill="rgb(56.079102%, 74.119568%, 30.979919%)" fill-opacity="1"><g transform="translate(234.819819, 49.691886)"><g><path d="M 1.234375 0 L 1.398438 -2.609375 L 1.410156 -2.78125 L 1.378906 -2.78125 L 0.789062 0 L 0.226562 0 L 1.105469 -4.148438 L 1.851562 -4.148438 L 1.804688 -2.253906 L 1.789062 -2.03125 L 1.800781 -2.03125 L 1.875 -2.253906 L 2.640625 -4.148438 L 3.386719 -4.148438 L 2.507812 0 L 1.941406 0 L 2.527344 -2.78125 L 2.496094 -2.78125 L 2.4375 -2.609375 L 1.496094 0 Z M 1.234375 0 "/></g></g></g><g fill="rgb(56.079102%, 74.119568%, 30.979919%)" fill-opacity="1"><g transform="translate(238.737089, 49.691886)"><g><path d="M 1.105469 -4.148438 L 2.5 -4.148438 L 2.363281 -3.523438 L 1.582031 -3.523438 L 1.347656 -2.433594 L 1.914062 -2.433594 L 1.773438 -1.765625 L 1.207031 -1.765625 L 0.964844 -0.625 L 1.75 -0.625 L 1.621094 0 L 0.226562 0 Z M 1.105469 -4.148438 "/></g></g></g><g fill="rgb(56.079102%, 74.119568%, 30.979919%)" fill-opacity="1"><g transform="translate(241.655278, 49.691886)"><g><path d="M 1.316406 0 L 1.367188 -1.75 L 1.203125 -1.75 L 0.835938 0 L 0.226562 0 L 1.105469 -4.148438 L 1.714844 -4.148438 C 2.445312 -4.148438 2.664062 -3.742188 2.5 -2.953125 C 2.410156 -2.539062 2.222656 -2.167969 1.957031 -2.007812 L 1.925781 0 Z M 1.328125 -2.3125 C 1.410156 -2.3125 1.523438 -2.320312 1.632812 -2.40625 C 1.738281 -2.488281 1.847656 -2.636719 1.90625 -2.929688 C 1.96875 -3.222656 1.929688 -3.375 1.855469 -3.460938 C 1.785156 -3.542969 1.671875 -3.542969 1.585938 -3.542969 Z M 1.328125 -2.3125 "/></g></g></g><g fill="rgb(56.079102%, 74.119568%, 30.979919%)" fill-opacity="1"><g transform="translate(244.878271, 49.691886)"><g><path d="M 1.878906 -3.035156 C 1.90625 -3.171875 1.9375 -3.324219 1.917969 -3.441406 C 1.902344 -3.554688 1.855469 -3.636719 1.761719 -3.636719 C 1.601562 -3.628906 1.519531 -3.464844 1.46875 -3.222656 C 1.4375 -3.082031 1.460938 -2.933594 1.523438 -2.777344 C 1.585938 -2.617188 1.660156 -2.457031 1.742188 -2.28125 C 1.851562 -2.070312 1.9375 -1.855469 2.003906 -1.648438 C 2.066406 -1.4375 2.09375 -1.226562 2.042969 -1 C 1.980469 -0.722656 1.890625 -0.46875 1.714844 -0.269531 C 1.539062 -0.0742188 1.316406 0.046875 0.976562 0.046875 C 0.585938 0.046875 0.394531 -0.101562 0.320312 -0.328125 C 0.238281 -0.554688 0.28125 -0.847656 0.34375 -1.164062 L 0.953125 -1.21875 C 0.914062 -1.042969 0.886719 -0.871094 0.902344 -0.738281 C 0.921875 -0.605469 0.964844 -0.511719 1.09375 -0.511719 C 1.277344 -0.511719 1.378906 -0.707031 1.4375 -0.972656 C 1.46875 -1.105469 1.4375 -1.265625 1.378906 -1.429688 C 1.359375 -1.46875 1.34375 -1.511719 1.328125 -1.550781 C 1.308594 -1.589844 1.292969 -1.636719 1.277344 -1.675781 C 1.234375 -1.761719 1.191406 -1.851562 1.144531 -1.949219 C 1.101562 -2.042969 1.054688 -2.140625 1.011719 -2.246094 C 0.914062 -2.460938 0.863281 -2.675781 0.847656 -2.890625 C 0.828125 -2.996094 0.847656 -3.109375 0.871094 -3.222656 C 0.914062 -3.449219 1.015625 -3.691406 1.191406 -3.878906 C 1.355469 -4.058594 1.582031 -4.1875 1.867188 -4.195312 C 2.246094 -4.199219 2.421875 -4.046875 2.496094 -3.828125 C 2.5625 -3.601562 2.539062 -3.324219 2.488281 -3.09375 Z M 1.878906 -3.035156 "/></g></g></g><g fill="rgb(56.079102%, 74.119568%, 30.979919%)" fill-opacity="1"><g transform="translate(173.200535, 57.217818)"><g/></g></g></svg>